<svg version="1.1" viewBox="0.0 0.0 806.7427821522309 390.4488188976378" fill="none" stroke="none" stroke-linecap="square" stroke-miterlimit="10" xmlns:xlink="http://www.w3.org/1999/xlink" xmlns="http://www.w3.org/2000/svg"><clipPath id="p.0"><path d="m0 0l806.7428 0l0 390.44882l-806.7428 0l0 -390.44882z" clip-rule="nonzero"/></clipPath><g clip-path="url(#p.0)"><path fill="#000000" fill-opacity="0.0" d="m0 0l806.7428 0l0 390.44882l-806.7428 0z" fill-rule="evenodd"/><path fill="#000000" fill-opacity="0.0" d="m43.90284 70.614075l717.6378 0l0 48.598427l-717.6378 0z" fill-rule="evenodd"/><path fill="#ff9900" d="m166.32558 92.45595l0 -3.109375q0 -1.265625 -0.296875 -2.234375q-0.28125 -0.984375 -0.828125 -1.65625q-0.5625 -0.671875 -1.359375 -1.015625q-0.796875 -0.359375 -1.8125 -0.359375q-1.015625 0 -1.8125 0.359375q-0.796875 0.34375 -1.34375 1.015625q-0.546875 0.671875 -0.84375 1.65625q-0.28125 0.96875 -0.28125 2.234375l0 3.109375q0 1.265625 0.28125 2.25q0.296875 0.984375 0.84375 1.640625q0.5625 0.6875 1.359375 1.03125q0.8125 0.34375 1.8125 0.34375q1.03125 0 1.8125 -0.34375q0.796875 -0.359375 1.34375 -1.03125q0.546875 -0.65625 0.828125 -1.640625q0.296875 -0.984375 0.296875 -2.25zm-6.890625 -0.328125q0 -0.234375 0 -0.46875q0 -0.234375 0 -0.453125l0 -2.21875q0 -0.9375 0.1875 -1.640625q0.1875 -0.703125 0.5625 -1.15625q0.328125 -0.359375 0.78125 -0.53125q0.46875 -0.1875 1.0625 -0.1875q0.59375 0 1.046875 0.171875q0.453125 0.171875 0.765625 0.515625q0.3125 0.328125 0.5 0.84375q0.1875 0.5 0.265625 1.15625l-5.171875 3.96875zm5.203125 0.6875q0 0.96875 -0.203125 1.6875q-0.1875 0.71875 -0.609375 1.171875q-0.3125 0.328125 -0.765625 0.5q-0.4375 0.171875 -1.015625 0.171875q-0.546875 0 -0.984375 -0.15625q-0.4375 -0.15625 -0.734375 -0.46875q-0.34375 -0.328125 -0.5625 -0.828125q-0.203125 -0.515625 -0.28125 -1.171875l5.15625 -3.953125q0 0.265625 0 0.65625q0 0.375 0 0.515625l0 1.875zm10.023697 4.71875l0 -13.265625l-0.125 0l-5.03125 1.9375l0 1.53125l3.46875 -1.3125l0 11.109375l1.6875 0zm11.195572 0l0 -13.265625l-0.125 0l-5.03125 1.9375l0 1.53125l3.46875 -1.3125l0 11.109375l1.6875 0zm14.054947 -5.078125l0 -3.109375q0 -1.265625 -0.296875 -2.234375q-0.28125 -0.984375 -0.828125 -1.65625q-0.5625 -0.671875 -1.359375 -1.015625q-0.796875 -0.359375 -1.8125 -0.359375q-1.015625 0 -1.8125 0.359375q-0.796875 0.34375 -1.34375 1.015625q-0.546875 0.671875 -0.84375 1.65625q-0.28125 0.96875 -0.28125 2.234375l0 3.109375q0 1.265625 0.28125 2.25q0.296875 0.984375 0.84375 1.640625q0.5625 0.6875 1.359375 1.03125q0.8125 0.34375 1.8125 0.34375q1.03125 0 1.8125 -0.34375q0.796875 -0.359375 1.34375 -1.03125q0.546875 -0.65625 0.828125 -1.640625q0.296875 -0.984375 0.296875 -2.25zm-6.890625 -0.328125q0 -0.234375 0 -0.46875q0 -0.234375 0 -0.453125l0 -2.21875q0 -0.9375 0.1875 -1.640625q0.1875 -0.703125 0.5625 -1.15625q0.328125 -0.359375 0.78125 -0.53125q0.46875 -0.1875 1.0625 -0.1875q0.59375 0 1.046875 0.171875q0.453125 0.171875 0.765625 0.515625q0.3125 0.328125 0.5 0.84375q0.1875 0.5 0.265625 1.15625l-5.171875 3.96875zm5.203125 0.6875q0 0.96875 -0.203125 1.6875q-0.1875 0.71875 -0.609375 1.171875q-0.3125 0.328125 -0.765625 0.5q-0.4375 0.171875 -1.015625 0.171875q-0.546875 0 -0.984375 -0.15625q-0.4375 -0.15625 -0.734375 -0.46875q-0.34375 -0.328125 -0.5625 -0.828125q-0.203125 -0.515625 -0.28125 -1.171875l5.15625 -3.953125q0 0.265625 0 0.65625q0 0.375 0 0.515625l0 1.875zm10.023697 4.71875l0 -13.265625l-0.125 0l-5.03125 1.9375l0 1.53125l3.46875 -1.3125l0 11.109375l1.6875 0zm14.054947 -5.078125l0 -3.109375q0 -1.265625 -0.296875 -2.234375q-0.28125 -0.984375 -0.828125 -1.65625q-0.5625 -0.671875 -1.359375 -1.015625q-0.796875 -0.359375 -1.8125 -0.359375q-1.015625 0 -1.8125 0.359375q-0.796875 0.34375 -1.34375 1.015625q-0.546875 0.671875 -0.84375 1.65625q-0.28125 0.96875 -0.28125 2.234375l0 3.109375q0 1.265625 0.28125 2.25q0.296875 0.984375 0.84375 1.640625q0.5625 0.6875 1.359375 1.03125q0.8125 0.34375 1.8125 0.34375q1.03125 0 1.8125 -0.34375q0.796875 -0.359375 1.34375 -1.03125q0.546875 -0.65625 0.828125 -1.640625q0.296875 -0.984375 0.296875 -2.25zm-6.890625 -0.328125q0 -0.234375 0 -0.46875q0 -0.234375 0 -0.453125l0 -2.21875q0 -0.9375 0.1875 -1.640625q0.1875 -0.703125 0.5625 -1.15625q0.328125 -0.359375 0.78125 -0.53125q0.46875 -0.1875 1.0625 -0.1875q0.59375 0 1.046875 0.171875q0.453125 0.171875 0.765625 0.515625q0.3125 0.328125 0.5 0.84375q0.1875 0.5 0.265625 1.15625l-5.171875 3.96875zm5.203125 0.6875q0 0.96875 -0.203125 1.6875q-0.1875 0.71875 -0.609375 1.171875q-0.3125 0.328125 -0.765625 0.5q-0.4375 0.171875 -1.015625 0.171875q-0.546875 0 -0.984375 -0.15625q-0.4375 -0.15625 -0.734375 -0.46875q-0.34375 -0.328125 -0.5625 -0.828125q-0.203125 -0.515625 -0.28125 -1.171875l5.15625 -3.953125q0 0.265625 0 0.65625q0 0.375 0 0.515625l0 1.875zm12.883072 -0.359375l0 -3.109375q0 -1.265625 -0.296875 -2.234375q-0.28125 -0.984375 -0.828125 -1.65625q-0.5625 -0.671875 -1.359375 -1.015625q-0.796875 -0.359375 -1.8125 -0.359375q-1.015625 0 -1.8125 0.359375q-0.796875 0.34375 -1.34375 1.015625q-0.546875 0.671875 -0.84375 1.65625q-0.28125 0.96875 -0.28125 2.234375l0 3.109375q0 1.265625 0.28125 2.25q0.296875 0.984375 0.84375 1.640625q0.5625 0.6875 1.359375 1.03125q0.8125 0.34375 1.8125 0.34375q1.03125 0 1.8125 -0.34375q0.796875 -0.359375 1.34375 -1.03125q0.546875 -0.65625 0.828125 -1.640625q0.296875 -0.984375 0.296875 -2.25zm-6.890625 -0.328125q0 -0.234375 0 -0.46875q0 -0.234375 0 -0.453125l0 -2.21875q0 -0.9375 0.1875 -1.640625q0.1875 -0.703125 0.5625 -1.15625q0.328125 -0.359375 0.78125 -0.53125q0.46875 -0.1875 1.0625 -0.1875q0.59375 0 1.046875 0.171875q0.453125 0.171875 0.765625 0.515625q0.3125 0.328125 0.5 0.84375q0.1875 0.5 0.265625 1.15625l-5.171875 3.96875zm5.203125 0.6875q0 0.96875 -0.203125 1.6875q-0.1875 0.71875 -0.609375 1.171875q-0.3125 0.328125 -0.765625 0.5q-0.4375 0.171875 -1.015625 0.171875q-0.546875 0 -0.984375 -0.15625q-0.4375 -0.15625 -0.734375 -0.46875q-0.34375 -0.328125 -0.5625 -0.828125q-0.203125 -0.515625 -0.28125 -1.171875l5.15625 -3.953125q0 0.265625 0 0.65625q0 0.375 0 0.515625l0 1.875zm12.883072 -0.359375l0 -3.109375q0 -1.265625 -0.296875 -2.234375q-0.28125 -0.984375 -0.828125 -1.65625q-0.5625 -0.671875 -1.359375 -1.015625q-0.796875 -0.359375 -1.8125 -0.359375q-1.015625 0 -1.8125 0.359375q-0.796875 0.34375 -1.34375 1.015625q-0.546875 0.671875 -0.84375 1.65625q-0.28125 0.96875 -0.28125 2.234375l0 3.109375q0 1.265625 0.28125 2.25q0.296875 0.984375 0.84375 1.640625q0.5625 0.6875 1.359375 1.03125q0.8125 0.34375 1.8125 0.34375q1.03125 0 1.8125 -0.34375q0.796875 -0.359375 1.34375 -1.03125q0.546875 -0.65625 0.828125 -1.640625q0.296875 -0.984375 0.296875 -2.25zm-6.890625 -0.328125q0 -0.234375 0 -0.46875q0 -0.234375 0 -0.453125l0 -2.21875q0 -0.9375 0.1875 -1.640625q0.1875 -0.703125 0.5625 -1.15625q0.328125 -0.359375 0.78125 -0.53125q0.46875 -0.1875 1.0625 -0.1875q0.59375 0 1.046875 0.171875q0.453125 0.171875 0.765625 0.515625q0.3125 0.328125 0.5 0.84375q0.1875 0.5 0.265625 1.15625l-5.171875 3.96875zm5.203125 0.6875q0 0.96875 -0.203125 1.6875q-0.1875 0.71875 -0.609375 1.171875q-0.3125 0.328125 -0.765625 0.5q-0.4375 0.171875 -1.015625 0.171875q-0.546875 0 -0.984375 -0.15625q-0.4375 -0.15625 -0.734375 -0.46875q-0.34375 -0.328125 -0.5625 -0.828125q-0.203125 -0.515625 -0.28125 -1.171875l5.15625 -3.953125q0 0.265625 0 0.65625q0 0.375 0 0.515625l0 1.875zm24.078644 -0.359375l0 -3.109375q0 -1.265625 -0.296875 -2.234375q-0.28125 -0.984375 -0.828125 -1.65625q-0.5625 -0.671875 -1.359375 -1.015625q-0.796875 -0.359375 -1.8125 -0.359375q-1.015625 0 -1.8125 0.359375q-0.796875 0.34375 -1.34375 1.015625q-0.546875 0.671875 -0.84375 1.65625q-0.28125 0.96875 -0.28125 2.234375l0 3.109375q0 1.265625 0.28125 2.25q0.296875 0.984375 0.84375 1.640625q0.5625 0.6875 1.359375 1.03125q0.8125 0.34375 1.8125 0.34375q1.03125 0 1.8125 -0.34375q0.796875 -0.359375 1.34375 -1.03125q0.546875 -0.65625 0.828125 -1.640625q0.296875 -0.984375 0.296875 -2.25zm-6.890625 -0.328125q0 -0.234375 0 -0.46875q0 -0.234375 0 -0.453125l0 -2.21875q0 -0.9375 0.1875 -1.640625q0.1875 -0.703125 0.5625 -1.15625q0.328125 -0.359375 0.78125 -0.53125q0.46875 -0.1875 1.0625 -0.1875q0.59375 0 1.046875 0.171875q0.453125 0.171875 0.765625 0.515625q0.3125 0.328125 0.5 0.84375q0.1875 0.5 0.265625 1.15625l-5.171875 3.96875zm5.203125 0.6875q0 0.96875 -0.203125 1.6875q-0.1875 0.71875 -0.609375 1.171875q-0.3125 0.328125 -0.765625 0.5q-0.4375 0.171875 -1.015625 0.171875q-0.546875 0 -0.984375 -0.15625q-0.4375 -0.15625 -0.734375 -0.46875q-0.34375 -0.328125 -0.5625 -0.828125q-0.203125 -0.515625 -0.28125 -1.171875l5.15625 -3.953125q0 0.265625 0 0.65625q0 0.375 0 0.515625l0 1.875zm10.023682 4.71875l0 -13.265625l-0.125 0l-5.03125 1.9375l0 1.53125l3.46875 -1.3125l0 11.109375l1.6875 0zm11.195587 0l0 -13.265625l-0.125 0l-5.03125 1.9375l0 1.53125l3.46875 -1.3125l0 11.109375l1.6875 0zm14.054932 -5.078125l0 -3.109375q0 -1.265625 -0.296875 -2.234375q-0.28125 -0.984375 -0.828125 -1.65625q-0.5625 -0.671875 -1.359375 -1.015625q-0.796875 -0.359375 -1.8125 -0.359375q-1.015625 0 -1.8125 0.359375q-0.796875 0.34375 -1.34375 1.015625q-0.546875 0.671875 -0.84375 1.65625q-0.28125 0.96875 -0.28125 2.234375l0 3.109375q0 1.265625 0.28125 2.25q0.296875 0.984375 0.84375 1.640625q0.5625 0.6875 1.359375 1.03125q0.8125 0.34375 1.8125 0.34375q1.03125 0 1.8125 -0.34375q0.796875 -0.359375 1.34375 -1.03125q0.546875 -0.65625 0.828125 -1.640625q0.296875 -0.984375 0.296875 -2.25zm-6.890625 -0.328125q0 -0.234375 0 -0.46875q0 -0.234375 0 -0.453125l0 -2.21875q0 -0.9375 0.1875 -1.640625q0.1875 -0.703125 0.5625 -1.15625q0.328125 -0.359375 0.78125 -0.53125q0.46875 -0.1875 1.0625 -0.1875q0.59375 0 1.046875 0.171875q0.453125 0.171875 0.765625 0.515625q0.3125 0.328125 0.5 0.84375q0.1875 0.5 0.265625 1.15625l-5.171875 3.96875zm5.203125 0.6875q0 0.96875 -0.203125 1.6875q-0.1875 0.71875 -0.609375 1.171875q-0.3125 0.328125 -0.765625 0.5q-0.4375 0.171875 -1.015625 0.171875q-0.546875 0 -0.984375 -0.15625q-0.4375 -0.15625 -0.734375 -0.46875q-0.34375 -0.328125 -0.5625 -0.828125q-0.203125 -0.515625 -0.28125 -1.171875l5.15625 -3.953125q0 0.265625 0 0.65625q0 0.375 0 0.515625l0 1.875zm12.883057 -0.359375l0 -3.109375q0 -1.265625 -0.296875 -2.234375q-0.28125 -0.984375 -0.828125 -1.65625q-0.5625 -0.671875 -1.359375 -1.015625q-0.796875 -0.359375 -1.8125 -0.359375q-1.015625 0 -1.8125 0.359375q-0.796875 0.34375 -1.34375 1.015625q-0.546875 0.671875 -0.84375 1.65625q-0.28125 0.96875 -0.28125 2.234375l0 3.109375q0 1.265625 0.28125 2.25q0.296875 0.984375 0.84375 1.640625q0.5625 0.6875 1.359375 1.03125q0.8125 0.34375 1.8125 0.34375q1.03125 0 1.8125 -0.34375q0.796875 -0.359375 1.34375 -1.03125q0.546875 -0.65625 0.828125 -1.640625q0.296875 -0.984375 0.296875 -2.25zm-6.890625 -0.328125q0 -0.234375 0 -0.46875q0 -0.234375 0 -0.453125l0 -2.21875q0 -0.9375 0.1875 -1.640625q0.1875 -0.703125 0.5625 -1.15625q0.328125 -0.359375 0.78125 -0.53125q0.46875 -0.1875 1.0625 -0.1875q0.59375 0 1.046875 0.171875q0.453125 0.171875 0.765625 0.515625q0.3125 0.328125 0.5 0.84375q0.1875 0.5 0.265625 1.15625l-5.171875 3.96875zm5.203125 0.6875q0 0.96875 -0.203125 1.6875q-0.1875 0.71875 -0.609375 1.171875q-0.3125 0.328125 -0.765625 0.5q-0.4375 0.171875 -1.015625 0.171875q-0.546875 0 -0.984375 -0.15625q-0.4375 -0.15625 -0.734375 -0.46875q-0.34375 -0.328125 -0.5625 -0.828125q-0.203125 -0.515625 -0.28125 -1.171875l5.15625 -3.953125q0 0.265625 0 0.65625q0 0.375 0 0.515625l0 1.875zm10.023712 4.71875l0 -13.265625l-0.125 0l-5.03125 1.9375l0 1.53125l3.46875 -1.3125l0 11.109375l1.6875 0zm14.054962 -5.078125l0 -3.109375q0 -1.265625 -0.296875 -2.234375q-0.28125 -0.984375 -0.828125 -1.65625q-0.5625 -0.671875 -1.359375 -1.015625q-0.796875 -0.359375 -1.8125 -0.359375q-1.015625 0 -1.8125 0.359375q-0.796875 0.34375 -1.34375 1.015625q-0.546875 0.671875 -0.84375 1.65625q-0.28125 0.96875 -0.28125 2.234375l0 3.109375q0 1.265625 0.28125 2.25q0.296875 0.984375 0.84375 1.640625q0.5625 0.6875 1.359375 1.03125q0.8125 0.34375 1.8125 0.34375q1.03125 0 1.8125 -0.34375q0.796875 -0.359375 1.34375 -1.03125q0.546875 -0.65625 0.828125 -1.640625q0.296875 -0.984375 0.296875 -2.25zm-6.890625 -0.328125q0 -0.234375 0 -0.46875q0 -0.234375 0 -0.453125l0 -2.21875q0 -0.9375 0.1875 -1.640625q0.1875 -0.703125 0.5625 -1.15625q0.328125 -0.359375 0.78125 -0.53125q0.46875 -0.1875 1.0625 -0.1875q0.59375 0 1.046875 0.171875q0.453125 0.171875 0.765625 0.515625q0.3125 0.328125 0.5 0.84375q0.1875 0.5 0.265625 1.15625l-5.171875 3.96875zm5.203125 0.6875q0 0.96875 -0.203125 1.6875q-0.1875 0.71875 -0.609375 1.171875q-0.3125 0.328125 -0.765625 0.5q-0.4375 0.171875 -1.015625 0.171875q-0.546875 0 -0.984375 -0.15625q-0.4375 -0.15625 -0.734375 -0.46875q-0.34375 -0.328125 -0.5625 -0.828125q-0.203125 -0.515625 -0.28125 -1.171875l5.15625 -3.953125q0 0.265625 0 0.65625q0 0.375 0 0.515625l0 1.875zm10.023682 4.71875l0 -13.265625l-0.125 0l-5.03125 1.9375l0 1.53125l3.46875 -1.3125l0 11.109375l1.6875 0zm25.250519 -5.078125l0 -3.109375q0 -1.265625 -0.296875 -2.234375q-0.28125 -0.984375 -0.828125 -1.65625q-0.5625 -0.671875 -1.359375 -1.015625q-0.796875 -0.359375 -1.8125 -0.359375q-1.015625 0 -1.8125 0.359375q-0.796875 0.34375 -1.34375 1.015625q-0.546875 0.671875 -0.84375 1.65625q-0.28125 0.96875 -0.28125 2.234375l0 3.109375q0 1.265625 0.28125 2.25q0.296875 0.984375 0.84375 1.640625q0.5625 0.6875 1.359375 1.03125q0.8125 0.34375 1.8125 0.34375q1.03125 0 1.8125 -0.34375q0.796875 -0.359375 1.34375 -1.03125q0.546875 -0.65625 0.828125 -1.640625q0.296875 -0.984375 0.296875 -2.25zm-6.890625 -0.328125q0 -0.234375 0 -0.46875q0 -0.234375 0 -0.453125l0 -2.21875q0 -0.9375 0.1875 -1.640625q0.1875 -0.703125 0.5625 -1.15625q0.328125 -0.359375 0.78125 -0.53125q0.46875 -0.1875 1.0625 -0.1875q0.59375 0 1.046875 0.171875q0.453125 0.171875 0.765625 0.515625q0.3125 0.328125 0.5 0.84375q0.1875 0.5 0.265625 1.15625l-5.171875 3.96875zm5.203125 0.6875q0 0.96875 -0.203125 1.6875q-0.1875 0.71875 -0.609375 1.171875q-0.3125 0.328125 -0.765625 0.5q-0.4375 0.171875 -1.015625 0.171875q-0.546875 0 -0.984375 -0.15625q-0.4375 -0.15625 -0.734375 -0.46875q-0.34375 -0.328125 -0.5625 -0.828125q-0.203125 -0.515625 -0.28125 -1.171875l5.15625 -3.953125q0 0.265625 0 0.65625q0 0.375 0 0.515625l0 1.875zm10.023712 4.71875l0 -13.265625l-0.125 0l-5.03125 1.9375l0 1.53125l3.46875 -1.3125l0 11.109375l1.6875 0zm11.195557 0l0 -13.265625l-0.125 0l-5.03125 1.9375l0 1.53125l3.46875 -1.3125l0 11.109375l1.6875 0zm14.054932 -5.078125l0 -3.109375q0 -1.265625 -0.296875 -2.234375q-0.28125 -0.984375 -0.828125 -1.65625q-0.5625 -0.671875 -1.359375 -1.015625q-0.796875 -0.359375 -1.8125 -0.359375q-1.015625 0 -1.8125 0.359375q-0.796875 0.34375 -1.34375 1.015625q-0.546875 0.671875 -0.84375 1.65625q-0.28125 0.96875 -0.28125 2.234375l0 3.109375q0 1.265625 0.28125 2.25q0.296875 0.984375 0.84375 1.640625q0.5625 0.6875 1.359375 1.03125q0.8125 0.34375 1.8125 0.34375q1.03125 0 1.8125 -0.34375q0.796875 -0.359375 1.34375 -1.03125q0.546875 -0.65625 0.828125 -1.640625q0.296875 -0.984375 0.296875 -2.25zm-6.890625 -0.328125q0 -0.234375 0 -0.46875q0 -0.234375 0 -0.453125l0 -2.21875q0 -0.9375 0.1875 -1.640625q0.1875 -0.703125 0.5625 -1.15625q0.328125 -0.359375 0.78125 -0.53125q0.46875 -0.1875 1.0625 -0.1875q0.59375 0 1.046875 0.171875q0.453125 0.171875 0.765625 0.515625q0.3125 0.328125 0.5 0.84375q0.1875 0.5 0.265625 1.15625l-5.171875 3.96875zm5.203125 0.6875q0 0.96875 -0.203125 1.6875q-0.1875 0.71875 -0.609375 1.171875q-0.3125 0.328125 -0.765625 0.5q-0.4375 0.171875 -1.015625 0.171875q-0.546875 0 -0.984375 -0.15625q-0.4375 -0.15625 -0.734375 -0.46875q-0.34375 -0.328125 -0.5625 -0.828125q-0.203125 -0.515625 -0.28125 -1.171875l5.15625 -3.953125q0 0.265625 0 0.65625q0 0.375 0 0.515625l0 1.875zm10.023712 4.71875l0 -13.265625l-0.125 0l-5.03125 1.9375l0 1.53125l3.46875 -1.3125l0 11.109375l1.6875 0zm11.195587 0l0 -13.265625l-0.125 0l-5.03125 1.9375l0 1.53125l3.46875 -1.3125l0 11.109375l1.6875 0zm14.054932 -5.078125l0 -3.109375q0 -1.265625 -0.296875 -2.234375q-0.28125 -0.984375 -0.828125 -1.65625q-0.5625 -0.671875 -1.359375 -1.015625q-0.796875 -0.359375 -1.8125 -0.359375q-1.015625 0 -1.8125 0.359375q-0.796875 0.34375 -1.34375 1.015625q-0.546875 0.671875 -0.84375 1.65625q-0.28125 0.96875 -0.28125 2.234375l0 3.109375q0 1.265625 0.28125 2.25q0.296875 0.984375 0.84375 1.640625q0.5625 0.6875 1.359375 1.03125q0.8125 0.34375 1.8125 0.34375q1.03125 0 1.8125 -0.34375q0.796875 -0.359375 1.34375 -1.03125q0.546875 -0.65625 0.828125 -1.640625q0.296875 -0.984375 0.296875 -2.25zm-6.890625 -0.328125q0 -0.234375 0 -0.46875q0 -0.234375 0 -0.453125l0 -2.21875q0 -0.9375 0.1875 -1.640625q0.1875 -0.703125 0.5625 -1.15625q0.328125 -0.359375 0.78125 -0.53125q0.46875 -0.1875 1.0625 -0.1875q0.59375 0 1.046875 0.171875q0.453125 0.171875 0.765625 0.515625q0.3125 0.328125 0.5 0.84375q0.1875 0.5 0.265625 1.15625l-5.171875 3.96875zm5.203125 0.6875q0 0.96875 -0.203125 1.6875q-0.1875 0.71875 -0.609375 1.171875q-0.3125 0.328125 -0.765625 0.5q-0.4375 0.171875 -1.015625 0.171875q-0.546875 0 -0.984375 -0.15625q-0.4375 -0.15625 -0.734375 -0.46875q-0.34375 -0.328125 -0.5625 -0.828125q-0.203125 -0.515625 -0.28125 -1.171875l5.15625 -3.953125q0 0.265625 0 0.65625q0 0.375 0 0.515625l0 1.875zm12.883057 -0.359375l0 -3.109375q0 -1.265625 -0.296875 -2.234375q-0.28125 -0.984375 -0.828125 -1.65625q-0.5625 -0.671875 -1.359375 -1.015625q-0.796875 -0.359375 -1.8125 -0.359375q-1.015625 0 -1.8125 0.359375q-0.796875 0.34375 -1.34375 1.015625q-0.546875 0.671875 -0.84375 1.65625q-0.28125 0.96875 -0.28125 2.234375l0 3.109375q0 1.265625 0.28125 2.25q0.296875 0.984375 0.84375 1.640625q0.5625 0.6875 1.359375 1.03125q0.8125 0.34375 1.8125 0.34375q1.03125 0 1.8125 -0.34375q0.796875 -0.359375 1.34375 -1.03125q0.546875 -0.65625 0.828125 -1.640625q0.296875 -0.984375 0.296875 -2.25zm-6.890625 -0.328125q0 -0.234375 0 -0.46875q0 -0.234375 0 -0.453125l0 -2.21875q0 -0.9375 0.1875 -1.640625q0.1875 -0.703125 0.5625 -1.15625q0.328125 -0.359375 0.78125 -0.53125q0.46875 -0.1875 1.0625 -0.1875q0.59375 0 1.046875 0.171875q0.453125 0.171875 0.765625 0.515625q0.3125 0.328125 0.5 0.84375q0.1875 0.5 0.265625 1.15625l-5.171875 3.96875zm5.203125 0.6875q0 0.96875 -0.203125 1.6875q-0.1875 0.71875 -0.609375 1.171875q-0.3125 0.328125 -0.765625 0.5q-0.4375 0.171875 -1.015625 0.171875q-0.546875 0 -0.984375 -0.15625q-0.4375 -0.15625 -0.734375 -0.46875q-0.34375 -0.328125 -0.5625 -0.828125q-0.203125 -0.515625 -0.28125 -1.171875l5.15625 -3.953125q0 0.265625 0 0.65625q0 0.375 0 0.515625l0 1.875zm24.078613 -0.359375l0 -3.109375q0 -1.265625 -0.296875 -2.234375q-0.28125 -0.984375 -0.828125 -1.65625q-0.5625 -0.671875 -1.359375 -1.015625q-0.796875 -0.359375 -1.8125 -0.359375q-1.015625 0 -1.8125 0.359375q-0.796875 0.34375 -1.34375 1.015625q-0.546875 0.671875 -0.84375 1.65625q-0.28125 0.96875 -0.28125 2.234375l0 3.109375q0 1.265625 0.28125 2.25q0.296875 0.984375 0.84375 1.640625q0.5625 0.6875 1.359375 1.03125q0.8125 0.34375 1.8125 0.34375q1.03125 0 1.8125 -0.34375q0.796875 -0.359375 1.34375 -1.03125q0.546875 -0.65625 0.828125 -1.640625q0.296875 -0.984375 0.296875 -2.25zm-6.890625 -0.328125q0 -0.234375 0 -0.46875q0 -0.234375 0 -0.453125l0 -2.21875q0 -0.9375 0.1875 -1.640625q0.1875 -0.703125 0.5625 -1.15625q0.328125 -0.359375 0.78125 -0.53125q0.46875 -0.1875 1.0625 -0.1875q0.59375 0 1.046875 0.171875q0.453125 0.171875 0.765625 0.515625q0.3125 0.328125 0.5 0.84375q0.1875 0.5 0.265625 1.15625l-5.171875 3.96875zm5.203125 0.6875q0 0.96875 -0.203125 1.6875q-0.1875 0.71875 -0.609375 1.171875q-0.3125 0.328125 -0.765625 0.5q-0.4375 0.171875 -1.015625 0.171875q-0.546875 0 -0.984375 -0.15625q-0.4375 -0.15625 -0.734375 -0.46875q-0.34375 -0.328125 -0.5625 -0.828125q-0.203125 -0.515625 -0.28125 -1.171875l5.15625 -3.953125q0 0.265625 0 0.65625q0 0.375 0 0.515625l0 1.875zm10.023682 4.71875l0 -13.265625l-0.125 0l-5.03125 1.9375l0 1.53125l3.46875 -1.3125l0 11.109375l1.6875 0zm11.195557 0l0 -13.265625l-0.125 0l-5.03125 1.9375l0 1.53125l3.46875 -1.3125l0 11.109375l1.6875 0zm14.054932 -5.078125l0 -3.109375q0 -1.265625 -0.296875 -2.234375q-0.28125 -0.984375 -0.828125 -1.65625q-0.5625 -0.671875 -1.359375 -1.015625q-0.796875 -0.359375 -1.8125 -0.359375q-1.015625 0 -1.8125 0.359375q-0.796875 0.34375 -1.34375 1.015625q-0.546875 0.671875 -0.84375 1.65625q-0.28125 0.96875 -0.28125 2.234375l0 3.109375q0 1.265625 0.28125 2.25q0.296875 0.984375 0.84375 1.640625q0.5625 0.6875 1.359375 1.03125q0.8125 0.34375 1.8125 0.34375q1.03125 0 1.8125 -0.34375q0.796875 -0.359375 1.34375 -1.03125q0.546875 -0.65625 0.828125 -1.640625q0.296875 -0.984375 0.296875 -2.25zm-6.890625 -0.328125q0 -0.234375 0 -0.46875q0 -0.234375 0 -0.453125l0 -2.21875q0 -0.9375 0.1875 -1.640625q0.1875 -0.703125 0.5625 -1.15625q0.328125 -0.359375 0.78125 -0.53125q0.46875 -0.1875 1.0625 -0.1875q0.59375 0 1.046875 0.171875q0.453125 0.171875 0.765625 0.515625q0.3125 0.328125 0.5 0.84375q0.1875 0.5 0.265625 1.15625l-5.171875 3.96875zm5.203125 0.6875q0 0.96875 -0.203125 1.6875q-0.1875 0.71875 -0.609375 1.171875q-0.3125 0.328125 -0.765625 0.5q-0.4375 0.171875 -1.015625 0.171875q-0.546875 0 -0.984375 -0.15625q-0.4375 -0.15625 -0.734375 -0.46875q-0.34375 -0.328125 -0.5625 -0.828125q-0.203125 -0.515625 -0.28125 -1.171875l5.15625 -3.953125q0 0.265625 0 0.65625q0 0.375 0 0.515625l0 1.875zm10.023682 4.71875l0 -13.265625l-0.125 0l-5.03125 1.9375l0 1.53125l3.46875 -1.3125l0 11.109375l1.6875 0zm11.195557 0l0 -13.265625l-0.125 0l-5.03125 1.9375l0 1.53125l3.46875 -1.3125l0 11.109375l1.6875 0zm14.054932 -5.078125l0 -3.109375q0 -1.265625 -0.296875 -2.234375q-0.28125 -0.984375 -0.828125 -1.65625q-0.5625 -0.671875 -1.359375 -1.015625q-0.796875 -0.359375 -1.8125 -0.359375q-1.015625 0 -1.8125 0.359375q-0.796875 0.34375 -1.34375 1.015625q-0.546875 0.671875 -0.84375 1.65625q-0.28125 0.96875 -0.28125 2.234375l0 3.109375q0 1.265625 0.28125 2.25q0.296875 0.984375 0.84375 1.640625q0.5625 0.6875 1.359375 1.03125q0.8125 0.34375 1.8125 0.34375q1.03125 0 1.8125 -0.34375q0.796875 -0.359375 1.34375 -1.03125q0.546875 -0.65625 0.828125 -1.640625q0.296875 -0.984375 0.296875 -2.25zm-6.890625 -0.328125q0 -0.234375 0 -0.46875q0 -0.234375 0 -0.453125l0 -2.21875q0 -0.9375 0.1875 -1.640625q0.1875 -0.703125 0.5625 -1.15625q0.328125 -0.359375 0.78125 -0.53125q0.46875 -0.1875 1.0625 -0.1875q0.59375 0 1.046875 0.171875q0.453125 0.171875 0.765625 0.515625q0.3125 0.328125 0.5 0.84375q0.1875 0.5 0.265625 1.15625l-5.171875 3.96875zm5.203125 0.6875q0 0.96875 -0.203125 1.6875q-0.1875 0.71875 -0.609375 1.171875q-0.3125 0.328125 -0.765625 0.5q-0.4375 0.171875 -1.015625 0.171875q-0.546875 0 -0.984375 -0.15625q-0.4375 -0.15625 -0.734375 -0.46875q-0.34375 -0.328125 -0.5625 -0.828125q-0.203125 -0.515625 -0.28125 -1.171875l5.15625 -3.953125q0 0.265625 0 0.65625q0 0.375 0 0.515625l0 1.875zm12.883057 -0.359375l0 -3.109375q0 -1.265625 -0.296875 -2.234375q-0.28125 -0.984375 -0.828125 -1.65625q-0.5625 -0.671875 -1.359375 -1.015625q-0.796875 -0.359375 -1.8125 -0.359375q-1.015625 0 -1.8125 0.359375q-0.796875 0.34375 -1.34375 1.015625q-0.546875 0.671875 -0.84375 1.65625q-0.28125 0.96875 -0.28125 2.234375l0 3.109375q0 1.265625 0.28125 2.25q0.296875 0.984375 0.84375 1.640625q0.5625 0.6875 1.359375 1.03125q0.8125 0.34375 1.8125 0.34375q1.03125 0 1.8125 -0.34375q0.796875 -0.359375 1.34375 -1.03125q0.546875 -0.65625 0.828125 -1.640625q0.296875 -0.984375 0.296875 -2.25zm-6.890625 -0.328125q0 -0.234375 0 -0.46875q0 -0.234375 0 -0.453125l0 -2.21875q0 -0.9375 0.1875 -1.640625q0.1875 -0.703125 0.5625 -1.15625q0.328125 -0.359375 0.78125 -0.53125q0.46875 -0.1875 1.0625 -0.1875q0.59375 0 1.046875 0.171875q0.453125 0.171875 0.765625 0.515625q0.3125 0.328125 0.5 0.84375q0.1875 0.5 0.265625 1.15625l-5.171875 3.96875zm5.203125 0.6875q0 0.96875 -0.203125 1.6875q-0.1875 0.71875 -0.609375 1.171875q-0.3125 0.328125 -0.765625 0.5q-0.4375 0.171875 -1.015625 0.171875q-0.546875 0 -0.984375 -0.15625q-0.4375 -0.15625 -0.734375 -0.46875q-0.34375 -0.328125 -0.5625 -0.828125q-0.203125 -0.515625 -0.28125 -1.171875l5.15625 -3.953125q0 0.265625 0 0.65625q0 0.375 0 0.515625l0 1.875zm24.078613 -0.359375l0 -3.109375q0 -1.265625 -0.296875 -2.234375q-0.28125 -0.984375 -0.828125 -1.65625q-0.5625 -0.671875 -1.359375 -1.015625q-0.796875 -0.359375 -1.8125 -0.359375q-1.015625 0 -1.8125 0.359375q-0.796875 0.34375 -1.34375 1.015625q-0.546875 0.671875 -0.84375 1.65625q-0.28125 0.96875 -0.28125 2.234375l0 3.109375q0 1.265625 0.28125 2.25q0.296875 0.984375 0.84375 1.640625q0.5625 0.6875 1.359375 1.03125q0.8125 0.34375 1.8125 0.34375q1.03125 0 1.8125 -0.34375q0.796875 -0.359375 1.34375 -1.03125q0.546875 -0.65625 0.828125 -1.640625q0.296875 -0.984375 0.296875 -2.25zm-6.890625 -0.328125q0 -0.234375 0 -0.46875q0 -0.234375 0 -0.453125l0 -2.21875q0 -0.9375 0.1875 -1.640625q0.1875 -0.703125 0.5625 -1.15625q0.328125 -0.359375 0.78125 -0.53125q0.46875 -0.1875 1.0625 -0.1875q0.59375 0 1.046875 0.171875q0.453125 0.171875 0.765625 0.515625q0.3125 0.328125 0.5 0.84375q0.1875 0.5 0.265625 1.15625l-5.171875 3.96875zm5.203125 0.6875q0 0.96875 -0.203125 1.6875q-0.1875 0.71875 -0.609375 1.171875q-0.3125 0.328125 -0.765625 0.5q-0.4375 0.171875 -1.015625 0.171875q-0.546875 0 -0.984375 -0.15625q-0.4375 -0.15625 -0.734375 -0.46875q-0.34375 -0.328125 -0.5625 -0.828125q-0.203125 -0.515625 -0.28125 -1.171875l5.15625 -3.953125q0 0.265625 0 0.65625q0 0.375 0 0.515625l0 1.875zm10.023682 4.71875l0 -13.265625l-0.125 0l-5.03125 1.9375l0 1.53125l3.46875 -1.3125l0 11.109375l1.6875 0zm11.195557 0l0 -13.265625l-0.125 0l-5.03125 1.9375l0 1.53125l3.46875 -1.3125l0 11.109375l1.6875 0zm14.054932 -5.078125l0 -3.109375q0 -1.265625 -0.296875 -2.234375q-0.28125 -0.984375 -0.828125 -1.65625q-0.5625 -0.671875 -1.359375 -1.015625q-0.796875 -0.359375 -1.8125 -0.359375q-1.015625 0 -1.8125 0.359375q-0.796875 0.34375 -1.34375 1.015625q-0.546875 0.671875 -0.84375 1.65625q-0.28125 0.96875 -0.28125 2.234375l0 3.109375q0 1.265625 0.28125 2.25q0.296875 0.984375 0.84375 1.640625q0.5625 0.6875 1.359375 1.03125q0.8125 0.34375 1.8125 0.34375q1.03125 0 1.8125 -0.34375q0.796875 -0.359375 1.34375 -1.03125q0.546875 -0.65625 0.828125 -1.640625q0.296875 -0.984375 0.296875 -2.25zm-6.890625 -0.328125q0 -0.234375 0 -0.46875q0 -0.234375 0 -0.453125l0 -2.21875q0 -0.9375 0.1875 -1.640625q0.1875 -0.703125 0.5625 -1.15625q0.328125 -0.359375 0.78125 -0.53125q0.46875 -0.1875 1.0625 -0.1875q0.59375 0 1.046875 0.171875q0.453125 0.171875 0.765625 0.515625q0.3125 0.328125 0.5 0.84375q0.1875 0.5 0.265625 1.15625l-5.171875 3.96875zm5.203125 0.6875q0 0.96875 -0.203125 1.6875q-0.1875 0.71875 -0.609375 1.171875q-0.3125 0.328125 -0.765625 0.5q-0.4375 0.171875 -1.015625 0.171875q-0.546875 0 -0.984375 -0.15625q-0.4375 -0.15625 -0.734375 -0.46875q-0.34375 -0.328125 -0.5625 -0.828125q-0.203125 -0.515625 -0.28125 -1.171875l5.15625 -3.953125q0 0.265625 0 0.65625q0 0.375 0 0.515625l0 1.875zm10.023682 4.71875l0 -13.265625l-0.125 0l-5.03125 1.9375l0 1.53125l3.46875 -1.3125l0 11.109375l1.6875 0zm11.195557 0l0 -13.265625l-0.125 0l-5.03125 1.9375l0 1.53125l3.46875 -1.3125l0 11.109375l1.6875 0zm11.195557 0l0 -13.265625l-0.125 0l-5.03125 1.9375l0 1.53125l3.46875 -1.3125l0 11.109375l1.6875 0zm11.195557 0l0 -13.265625l-0.125 0l-5.03125 1.9375l0 1.53125l3.46875 -1.3125l0 11.109375l1.6875 0z" fill-rule="nonzero"/><path fill="#000000" fill-opacity="0.0" d="m43.90284 6.6140747l717.6378 0l0 48.598427l-717.6378 0z" fill-rule="evenodd"/><path fill="#000000" d="m198.8694 25.143448l0 -5.609375l-1.6875 0l0 14.0l1.6875 0l0 -7.15625q0.1875 -0.296875 0.421875 -0.53125q0.234375 -0.25 0.5 -0.421875q0.34375 -0.25 0.75 -0.375q0.421875 -0.125 0.875 -0.125q0.5625 -0.015625 0.984375 0.15625q0.421875 0.15625 0.703125 0.46875q0.265625 0.296875 0.40625 0.734375q0.140625 0.4375 0.140625 1.03125l0 6.21875l1.6875 0l0 -6.203125q0 -1.0 -0.25 -1.71875q-0.234375 -0.71875 -0.6875 -1.203125q-0.4375 -0.46875 -1.078125 -0.6875q-0.625 -0.21875 -1.40625 -0.21875q-0.59375 0 -1.125 0.171875q-0.515625 0.15625 -0.953125 0.484375q-0.265625 0.1875 -0.515625 0.4375q-0.25 0.25 -0.453125 0.546875zm103.43199 8.578125q1.4375 0 2.421875 -0.578125q0.984375 -0.578125 1.46875 -1.328125l-1.03125 -0.796875q-0.46875 0.59375 -1.171875 0.96875q-0.6875 0.359375 -1.59375 0.359375q-0.6875 0 -1.25 -0.25q-0.5625 -0.265625 -0.96875 -0.71875q-0.39059448 -0.40625 -0.6093445 -0.953125q-0.21875 -0.546875 -0.28125 -1.265625l0 -0.078125l7.0312195 0l0 -0.75q0 -1.03125 -0.265625 -1.90625q-0.25 -0.890625 -0.78125 -1.546875q-0.53125 -0.640625 -1.328125 -1.0q-0.796875 -0.375 -1.859375 -0.375q-0.84375 0 -1.65625 0.34375q-0.7968445 0.34375 -1.4374695 0.984375q-0.625 0.65625 -1.015625 1.609375q-0.375 0.9375 -0.375 2.125l0 0.390625q0 1.03125 0.34375 1.90625q0.34375 0.875 0.96875 1.5q0.609375 0.640625 1.4843445 1.0q0.875 0.359375 1.90625 0.359375zm-0.21875 -8.84375q0.65625 0 1.125 0.234375q0.46875 0.234375 0.765625 0.625q0.3125 0.375 0.484375 0.90625q0.171875 0.515625 0.171875 0.984375l0 0.078125l-5.2968445 0q0.09375 -0.6875 0.34375 -1.203125q0.26559448 -0.53125 0.6249695 -0.890625q0.359375 -0.359375 0.8125 -0.546875q0.453125 -0.1875 0.96875 -0.1875zm96.88516 -5.34375l0 1.46875l3.359375 0l0 11.078125l-3.359375 0l0 1.453125l8.265625 0l0 -1.453125l-3.21875 0l0 -12.546875l-5.046875 0zm100.7601 0l0 1.46875l3.359375 0l0 11.078125l-3.359375 0l0 1.453125l8.265625 0l0 -1.453125l-3.21875 0l0 -12.546875l-5.046875 0zm100.025635 8.984375l0 0.203125q0 1.0625 0.3125 1.96875q0.3125 0.90625 0.890625 1.59375q0.578125 0.671875 1.40625 1.0625q0.84375 0.375 1.890625 0.375q1.03125 0 1.859375 -0.375q0.828125 -0.390625 1.40625 -1.0625q0.578125 -0.6875 0.890625 -1.59375q0.3125 -0.90625 0.3125 -1.96875l0 -0.203125q0 -1.0625 -0.3125 -1.984375q-0.3125 -0.921875 -0.890625 -1.59375q-0.578125 -0.671875 -1.421875 -1.046875q-0.828125 -0.390625 -1.875 -0.390625q-1.03125 0 -1.859375 0.390625q-0.828125 0.375 -1.40625 1.046875q-0.578125 0.671875 -0.890625 1.59375q-0.3125 0.921875 -0.3125 1.984375zm1.6875 0.203125l0 -0.203125q0 -0.71875 0.171875 -1.375q0.171875 -0.671875 0.53125 -1.171875q0.34375 -0.5 0.859375 -0.796875q0.515625 -0.296875 1.21875 -0.296875q0.703125 0 1.21875 0.296875q0.53125 0.296875 0.890625 0.796875q0.34375 0.5 0.515625 1.171875q0.1875 0.65625 0.1875 1.375l0 0.203125q0 0.71875 -0.171875 1.390625q-0.171875 0.65625 -0.515625 1.15625q-0.359375 0.5 -0.890625 0.796875q-0.515625 0.28125 -1.203125 0.28125q-0.703125 0 -1.234375 -0.28125q-0.53125 -0.296875 -0.875 -0.796875q-0.359375 -0.5 -0.53125 -1.15625q-0.171875 -0.671875 -0.171875 -1.390625z" fill-rule="nonzero"/><path fill="#000000" fill-opacity="0.0" d="m200.0 45.267715l0 18.992126" fill-rule="evenodd"/><path stroke="#000000" stroke-width="1.0" stroke-linejoin="round" stroke-linecap="butt" d="m200.0 45.267715l0 12.992126" fill-rule="evenodd"/><path fill="#000000" stroke="#000000" stroke-width="1.0" stroke-linecap="butt" d="m198.34827 58.259842l1.6517334 4.5380974l1.6517334 -4.5380974z" fill-rule="evenodd"/><path fill="#000000" fill-opacity="0.0" d="m302.44476 45.267715l0 18.992126" fill-rule="evenodd"/><path stroke="#000000" stroke-width="1.0" stroke-linejoin="round" stroke-linecap="butt" d="m302.44476 45.267715l0 12.992126" fill-rule="evenodd"/><path fill="#000000" stroke="#000000" stroke-width="1.0" stroke-linecap="butt" d="m300.79303 58.259842l1.6517334 4.5380974l1.6517334 -4.5380974z" fill-rule="evenodd"/><path fill="#000000" fill-opacity="0.0" d="m402.80457 45.267715l0 18.992126" fill-rule="evenodd"/><path stroke="#000000" stroke-width="1.0" stroke-linejoin="round" stroke-linecap="butt" d="m402.80453 45.267715l0 12.992126" fill-rule="evenodd"/><path fill="#000000" stroke="#000000" stroke-width="1.0" stroke-linecap="butt" d="m401.1528 58.259842l1.6517334 4.5380974l1.6517334 -4.5380974z" fill-rule="evenodd"/><path fill="#000000" fill-opacity="0.0" d="m503.2722 45.267715l0 18.992126" fill-rule="evenodd"/><path stroke="#000000" stroke-width="1.0" stroke-linejoin="round" stroke-linecap="butt" d="m503.2722 45.267715l0 12.992126" fill-rule="evenodd"/><path fill="#000000" stroke="#000000" stroke-width="1.0" stroke-linecap="butt" d="m501.62045 58.259842l1.6517334 4.5380974l1.6517334 -4.5380974z" fill-rule="evenodd"/><path fill="#000000" fill-opacity="0.0" d="m604.0699 45.267715l0 18.992126" fill-rule="evenodd"/><path stroke="#000000" stroke-width="1.0" stroke-linejoin="round" stroke-linecap="butt" d="m604.0699 45.267715l0 12.992126" fill-rule="evenodd"/><path fill="#000000" stroke="#000000" stroke-width="1.0" stroke-linecap="butt" d="m602.41815 58.259842l1.6517334 4.5380974l1.6517334 -4.5380974z" fill-rule="evenodd"/><path fill="#000000" fill-opacity="0.0" d="m43.90284 270.05228l717.6378 0l0 48.59842l-717.6378 0z" fill-rule="evenodd"/><path fill="#ff9900" d="m166.32544 291.89417l0 -3.109375q0 -1.265625 -0.296875 -2.234375q-0.28125 -0.984375 -0.828125 -1.65625q-0.5625 -0.671875 -1.359375 -1.015625q-0.796875 -0.359375 -1.8125 -0.359375q-1.015625 0 -1.8125 0.359375q-0.796875 0.34375 -1.34375 1.015625q-0.546875 0.671875 -0.84375 1.65625q-0.28125 0.96875 -0.28125 2.234375l0 3.109375q0 1.265625 0.28125 2.25q0.296875 0.984375 0.84375 1.640625q0.5625 0.6875 1.359375 1.03125q0.8125 0.34375 1.8125 0.34375q1.03125 0 1.8125 -0.34375q0.796875 -0.359375 1.34375 -1.03125q0.546875 -0.65625 0.828125 -1.640625q0.296875 -0.984375 0.296875 -2.25zm-6.890625 -0.328125q0 -0.234375 0 -0.46875q0 -0.234375 0 -0.453125l0 -2.21875q0 -0.9375 0.1875 -1.640625q0.1875 -0.703125 0.5625 -1.15625q0.328125 -0.359375 0.78125 -0.53125q0.46875 -0.1875 1.0625 -0.1875q0.59375 0 1.046875 0.171875q0.453125 0.171875 0.765625 0.515625q0.3125 0.328125 0.5 0.84375q0.1875 0.5 0.265625 1.15625l-5.171875 3.96875zm5.203125 0.6875q0 0.96875 -0.203125 1.6875q-0.1875 0.71875 -0.609375 1.171875q-0.3125 0.328125 -0.765625 0.5q-0.4375 0.171875 -1.015625 0.171875q-0.546875 0 -0.984375 -0.15625q-0.4375 -0.15625 -0.734375 -0.46875q-0.34375 -0.328125 -0.5625 -0.828125q-0.203125 -0.515625 -0.28125 -1.171875l5.15625 -3.953125q0 0.265625 0 0.65625q0 0.375 0 0.515625l0 1.875zm10.023697 4.71875l0 -13.265625l-0.125 0l-5.03125 1.9375l0 1.53125l3.46875 -1.3125l0 11.109375l1.6875 0zm11.195572 0l0 -13.265625l-0.125 0l-5.03125 1.9375l0 1.53125l3.46875 -1.3125l0 11.109375l1.6875 0zm14.054947 -5.078125l0 -3.109375q0 -1.265625 -0.296875 -2.234375q-0.28125 -0.984375 -0.828125 -1.65625q-0.5625 -0.671875 -1.359375 -1.015625q-0.796875 -0.359375 -1.8125 -0.359375q-1.015625 0 -1.8125 0.359375q-0.796875 0.34375 -1.34375 1.015625q-0.546875 0.671875 -0.84375 1.65625q-0.28125 0.96875 -0.28125 2.234375l0 3.109375q0 1.265625 0.28125 2.25q0.296875 0.984375 0.84375 1.640625q0.5625 0.6875 1.359375 1.03125q0.8125 0.34375 1.8125 0.34375q1.03125 0 1.8125 -0.34375q0.796875 -0.359375 1.34375 -1.03125q0.546875 -0.65625 0.828125 -1.640625q0.296875 -0.984375 0.296875 -2.25zm-6.890625 -0.328125q0 -0.234375 0 -0.46875q0 -0.234375 0 -0.453125l0 -2.21875q0 -0.9375 0.1875 -1.640625q0.1875 -0.703125 0.5625 -1.15625q0.328125 -0.359375 0.78125 -0.53125q0.46875 -0.1875 1.0625 -0.1875q0.59375 0 1.046875 0.171875q0.453125 0.171875 0.765625 0.515625q0.3125 0.328125 0.5 0.84375q0.1875 0.5 0.265625 1.15625l-5.171875 3.96875zm5.203125 0.6875q0 0.96875 -0.203125 1.6875q-0.1875 0.71875 -0.609375 1.171875q-0.3125 0.328125 -0.765625 0.5q-0.4375 0.171875 -1.015625 0.171875q-0.546875 0 -0.984375 -0.15625q-0.4375 -0.15625 -0.734375 -0.46875q-0.34375 -0.328125 -0.5625 -0.828125q-0.203125 -0.515625 -0.28125 -1.171875l5.15625 -3.953125q0 0.265625 0 0.65625q0 0.375 0 0.515625l0 1.875zm10.023697 4.71875l0 -13.265625l-0.125 0l-5.03125 1.9375l0 1.53125l3.46875 -1.3125l0 11.109375l1.6875 0zm14.054947 -5.078125l0 -3.109375q0 -1.265625 -0.296875 -2.234375q-0.28125 -0.984375 -0.828125 -1.65625q-0.5625 -0.671875 -1.359375 -1.015625q-0.796875 -0.359375 -1.8125 -0.359375q-1.015625 0 -1.8125 0.359375q-0.796875 0.34375 -1.34375 1.015625q-0.546875 0.671875 -0.84375 1.65625q-0.28125 0.96875 -0.28125 2.234375l0 3.109375q0 1.265625 0.28125 2.25q0.296875 0.984375 0.84375 1.640625q0.5625 0.6875 1.359375 1.03125q0.8125 0.34375 1.8125 0.34375q1.03125 0 1.8125 -0.34375q0.796875 -0.359375 1.34375 -1.03125q0.546875 -0.65625 0.828125 -1.640625q0.296875 -0.984375 0.296875 -2.25zm-6.890625 -0.328125q0 -0.234375 0 -0.46875q0 -0.234375 0 -0.453125l0 -2.21875q0 -0.9375 0.1875 -1.640625q0.1875 -0.703125 0.5625 -1.15625q0.328125 -0.359375 0.78125 -0.53125q0.46875 -0.1875 1.0625 -0.1875q0.59375 0 1.046875 0.171875q0.453125 0.171875 0.765625 0.515625q0.3125 0.328125 0.5 0.84375q0.1875 0.5 0.265625 1.15625l-5.171875 3.96875zm5.203125 0.6875q0 0.96875 -0.203125 1.6875q-0.1875 0.71875 -0.609375 1.171875q-0.3125 0.328125 -0.765625 0.5q-0.4375 0.171875 -1.015625 0.171875q-0.546875 0 -0.984375 -0.15625q-0.4375 -0.15625 -0.734375 -0.46875q-0.34375 -0.328125 -0.5625 -0.828125q-0.203125 -0.515625 -0.28125 -1.171875l5.15625 -3.953125q0 0.265625 0 0.65625q0 0.375 0 0.515625l0 1.875z" fill-rule="nonzero"/><path fill="#ff0000" d="m231.077 296.9723l0 -13.265625l-0.140625 0l-5.765625 2.09375l0 2.203125l3.34375 -1.203125l0 10.171875l2.5625 0z" fill-rule="nonzero"/><path fill="#ff9900" d="m244.69444 291.89417l0 -3.109375q0 -1.265625 -0.296875 -2.234375q-0.28125 -0.984375 -0.828125 -1.65625q-0.5625 -0.671875 -1.359375 -1.015625q-0.796875 -0.359375 -1.8125 -0.359375q-1.015625 0 -1.8125 0.359375q-0.796875 0.34375 -1.34375 1.015625q-0.546875 0.671875 -0.84375 1.65625q-0.28125 0.96875 -0.28125 2.234375l0 3.109375q0 1.265625 0.28125 2.25q0.296875 0.984375 0.84375 1.640625q0.5625 0.6875 1.359375 1.03125q0.8125 0.34375 1.8125 0.34375q1.03125 0 1.8125 -0.34375q0.796875 -0.359375 1.34375 -1.03125q0.546875 -0.65625 0.828125 -1.640625q0.296875 -0.984375 0.296875 -2.25zm-6.890625 -0.328125q0 -0.234375 0 -0.46875q0 -0.234375 0 -0.453125l0 -2.21875q0 -0.9375 0.1875 -1.640625q0.1875 -0.703125 0.5625 -1.15625q0.328125 -0.359375 0.78125 -0.53125q0.46875 -0.1875 1.0625 -0.1875q0.59375 0 1.046875 0.171875q0.453125 0.171875 0.765625 0.515625q0.3125 0.328125 0.5 0.84375q0.1875 0.5 0.265625 1.15625l-5.171875 3.96875zm5.203125 0.6875q0 0.96875 -0.203125 1.6875q-0.1875 0.71875 -0.609375 1.171875q-0.3125 0.328125 -0.765625 0.5q-0.4375 0.171875 -1.015625 0.171875q-0.546875 0 -0.984375 -0.15625q-0.4375 -0.15625 -0.734375 -0.46875q-0.34375 -0.328125 -0.5625 -0.828125q-0.203125 -0.515625 -0.28125 -1.171875l5.15625 -3.953125q0 0.265625 0 0.65625q0 0.375 0 0.515625l0 1.875zm24.078629 -0.359375l0 -3.109375q0 -1.265625 -0.296875 -2.234375q-0.28125 -0.984375 -0.828125 -1.65625q-0.5625 -0.671875 -1.359375 -1.015625q-0.796875 -0.359375 -1.8125 -0.359375q-1.015625 0 -1.8125 0.359375q-0.796875 0.34375 -1.34375 1.015625q-0.546875 0.671875 -0.84375 1.65625q-0.28125 0.96875 -0.28125 2.234375l0 3.109375q0 1.265625 0.28125 2.25q0.296875 0.984375 0.84375 1.640625q0.5625 0.6875 1.359375 1.03125q0.8125 0.34375 1.8125 0.34375q1.03125 0 1.8125 -0.34375q0.796875 -0.359375 1.34375 -1.03125q0.546875 -0.65625 0.828125 -1.640625q0.296875 -0.984375 0.296875 -2.25zm-6.890625 -0.328125q0 -0.234375 0 -0.46875q0 -0.234375 0 -0.453125l0 -2.21875q0 -0.9375 0.1875 -1.640625q0.1875 -0.703125 0.5625 -1.15625q0.328125 -0.359375 0.78125 -0.53125q0.46875 -0.1875 1.0625 -0.1875q0.59375 0 1.046875 0.171875q0.453125 0.171875 0.765625 0.515625q0.3125 0.328125 0.5 0.84375q0.1875 0.5 0.265625 1.15625l-5.171875 3.96875zm5.203125 0.6875q0 0.96875 -0.203125 1.6875q-0.1875 0.71875 -0.609375 1.171875q-0.3125 0.328125 -0.765625 0.5q-0.4375 0.171875 -1.015625 0.171875q-0.546875 0 -0.984375 -0.15625q-0.4375 -0.15625 -0.734375 -0.46875q-0.34375 -0.328125 -0.5625 -0.828125q-0.203125 -0.515625 -0.28125 -1.171875l5.15625 -3.953125q0 0.265625 0 0.65625q0 0.375 0 0.515625l0 1.875zm10.023712 4.71875l0 -13.265625l-0.125 0l-5.03125 1.9375l0 1.53125l3.46875 -1.3125l0 11.109375l1.6875 0zm11.195557 0l0 -13.265625l-0.125 0l-5.03125 1.9375l0 1.53125l3.46875 -1.3125l0 11.109375l1.6875 0zm14.054962 -5.078125l0 -3.109375q0 -1.265625 -0.296875 -2.234375q-0.28125 -0.984375 -0.828125 -1.65625q-0.5625 -0.671875 -1.359375 -1.015625q-0.796875 -0.359375 -1.8125 -0.359375q-1.015625 0 -1.8125 0.359375q-0.796875 0.34375 -1.34375 1.015625q-0.546875 0.671875 -0.84375 1.65625q-0.28125 0.96875 -0.28125 2.234375l0 3.109375q0 1.265625 0.28125 2.25q0.296875 0.984375 0.84375 1.640625q0.5625 0.6875 1.359375 1.03125q0.8125 0.34375 1.8125 0.34375q1.03125 0 1.8125 -0.34375q0.796875 -0.359375 1.34375 -1.03125q0.546875 -0.65625 0.828125 -1.640625q0.296875 -0.984375 0.296875 -2.25zm-6.890625 -0.328125q0 -0.234375 0 -0.46875q0 -0.234375 0 -0.453125l0 -2.21875q0 -0.9375 0.1875 -1.640625q0.1875 -0.703125 0.5625 -1.15625q0.328125 -0.359375 0.78125 -0.53125q0.46875 -0.1875 1.0625 -0.1875q0.59375 0 1.046875 0.171875q0.453125 0.171875 0.765625 0.515625q0.3125 0.328125 0.5 0.84375q0.1875 0.5 0.265625 1.15625l-5.171875 3.96875zm5.203125 0.6875q0 0.96875 -0.203125 1.6875q-0.1875 0.71875 -0.609375 1.171875q-0.3125 0.328125 -0.765625 0.5q-0.4375 0.171875 -1.015625 0.171875q-0.546875 0 -0.984375 -0.15625q-0.4375 -0.15625 -0.734375 -0.46875q-0.34375 -0.328125 -0.5625 -0.828125q-0.203125 -0.515625 -0.28125 -1.171875l5.15625 -3.953125q0 0.265625 0 0.65625q0 0.375 0 0.515625l0 1.875zm12.883057 -0.359375l0 -3.109375q0 -1.265625 -0.296875 -2.234375q-0.28125 -0.984375 -0.828125 -1.65625q-0.5625 -0.671875 -1.359375 -1.015625q-0.796875 -0.359375 -1.8125 -0.359375q-1.015625 0 -1.8125 0.359375q-0.796875 0.34375 -1.34375 1.015625q-0.546875 0.671875 -0.84375 1.65625q-0.28125 0.96875 -0.28125 2.234375l0 3.109375q0 1.265625 0.28125 2.25q0.296875 0.984375 0.84375 1.640625q0.5625 0.6875 1.359375 1.03125q0.8125 0.34375 1.8125 0.34375q1.03125 0 1.8125 -0.34375q0.796875 -0.359375 1.34375 -1.03125q0.546875 -0.65625 0.828125 -1.640625q0.296875 -0.984375 0.296875 -2.25zm-6.890625 -0.328125q0 -0.234375 0 -0.46875q0 -0.234375 0 -0.453125l0 -2.21875q0 -0.9375 0.1875 -1.640625q0.1875 -0.703125 0.5625 -1.15625q0.328125 -0.359375 0.78125 -0.53125q0.46875 -0.1875 1.0625 -0.1875q0.59375 0 1.046875 0.171875q0.453125 0.171875 0.765625 0.515625q0.3125 0.328125 0.5 0.84375q0.1875 0.5 0.265625 1.15625l-5.171875 3.96875zm5.203125 0.6875q0 0.96875 -0.203125 1.6875q-0.1875 0.71875 -0.609375 1.171875q-0.3125 0.328125 -0.765625 0.5q-0.4375 0.171875 -1.015625 0.171875q-0.546875 0 -0.984375 -0.15625q-0.4375 -0.15625 -0.734375 -0.46875q-0.34375 -0.328125 -0.5625 -0.828125q-0.203125 -0.515625 -0.28125 -1.171875l5.15625 -3.953125q0 0.265625 0 0.65625q0 0.375 0 0.515625l0 1.875z" fill-rule="nonzero"/><path fill="#ff0000" d="m323.07904 291.9254l0 -3.171875q0 -1.28125 -0.3125 -2.25q-0.296875 -0.984375 -0.84375 -1.65625q-0.5625 -0.65625 -1.375 -0.984375q-0.796875 -0.34375 -1.796875 -0.34375q-1.0 0 -1.796875 0.34375q-0.796875 0.328125 -1.34375 0.984375q-0.5625 0.671875 -0.875 1.65625q-0.296875 0.96875 -0.296875 2.25l0 3.171875q0 1.28125 0.296875 2.265625q0.3125 0.984375 0.875 1.640625q0.5625 0.65625 1.359375 1.0q0.8125 0.328125 1.796875 0.328125q1.0 0 1.796875 -0.328125q0.8125 -0.34375 1.359375 -1.0q0.5625 -0.65625 0.859375 -1.640625q0.296875 -0.984375 0.296875 -2.265625zm-6.09375 -1.09375q0 -0.28125 0 -0.421875q0 -0.15625 0 -0.59375l0 -1.46875q0 -0.734375 0.109375 -1.265625q0.125 -0.546875 0.359375 -0.875q0.21875 -0.328125 0.546875 -0.484375q0.328125 -0.15625 0.75 -0.15625q0.375 0 0.6875 0.125q0.3125 0.125 0.515625 0.375q0.265625 0.328125 0.40625 0.859375q0.140625 0.53125 0.171875 1.28125l-3.546875 2.625zm3.546875 1.46875q0 0.75 -0.125 1.296875q-0.109375 0.53125 -0.328125 0.875q-0.21875 0.328125 -0.546875 0.5q-0.328125 0.15625 -0.765625 0.15625q-0.46875 0 -0.8125 -0.1875q-0.328125 -0.1875 -0.546875 -0.5625q-0.1875 -0.296875 -0.296875 -0.765625q-0.09375 -0.46875 -0.125 -1.0625l3.546875 -2.625q0 0.265625 0 0.40625q0 0.140625 0 0.4375l0 1.53125z" fill-rule="nonzero"/><path fill="#ff9900" d="m334.259 291.89417l0 -3.109375q0 -1.265625 -0.296875 -2.234375q-0.28125 -0.984375 -0.828125 -1.65625q-0.5625 -0.671875 -1.359375 -1.015625q-0.796875 -0.359375 -1.8125 -0.359375q-1.015625 0 -1.8125 0.359375q-0.796875 0.34375 -1.34375 1.015625q-0.546875 0.671875 -0.84375 1.65625q-0.28125 0.96875 -0.28125 2.234375l0 3.109375q0 1.265625 0.28125 2.25q0.296875 0.984375 0.84375 1.640625q0.5625 0.6875 1.359375 1.03125q0.8125 0.34375 1.8125 0.34375q1.03125 0 1.8125 -0.34375q0.796875 -0.359375 1.34375 -1.03125q0.546875 -0.65625 0.828125 -1.640625q0.296875 -0.984375 0.296875 -2.25zm-6.890625 -0.328125q0 -0.234375 0 -0.46875q0 -0.234375 0 -0.453125l0 -2.21875q0 -0.9375 0.1875 -1.640625q0.1875 -0.703125 0.5625 -1.15625q0.328125 -0.359375 0.78125 -0.53125q0.46875 -0.1875 1.0625 -0.1875q0.59375 0 1.046875 0.171875q0.453125 0.171875 0.765625 0.515625q0.3125 0.328125 0.5 0.84375q0.1875 0.5 0.265625 1.15625l-5.171875 3.96875zm5.203125 0.6875q0 0.96875 -0.203125 1.6875q-0.1875 0.71875 -0.609375 1.171875q-0.3125 0.328125 -0.765625 0.5q-0.4375 0.171875 -1.015625 0.171875q-0.546875 0 -0.984375 -0.15625q-0.4375 -0.15625 -0.734375 -0.46875q-0.34375 -0.328125 -0.5625 -0.828125q-0.203125 -0.515625 -0.28125 -1.171875l5.15625 -3.953125q0 0.265625 0 0.65625q0 0.375 0 0.515625l0 1.875zm10.023712 4.71875l0 -13.265625l-0.125 0l-5.03125 1.9375l0 1.53125l3.46875 -1.3125l0 11.109375l1.6875 0zm25.250488 -5.078125l0 -3.109375q0 -1.265625 -0.296875 -2.234375q-0.28125 -0.984375 -0.828125 -1.65625q-0.5625 -0.671875 -1.359375 -1.015625q-0.796875 -0.359375 -1.8125 -0.359375q-1.015625 0 -1.8125 0.359375q-0.796875 0.34375 -1.34375 1.015625q-0.546875 0.671875 -0.84375 1.65625q-0.28125 0.96875 -0.28125 2.234375l0 3.109375q0 1.265625 0.28125 2.25q0.296875 0.984375 0.84375 1.640625q0.5625 0.6875 1.359375 1.03125q0.8125 0.34375 1.8125 0.34375q1.03125 0 1.8125 -0.34375q0.796875 -0.359375 1.34375 -1.03125q0.546875 -0.65625 0.828125 -1.640625q0.296875 -0.984375 0.296875 -2.25zm-6.890625 -0.328125q0 -0.234375 0 -0.46875q0 -0.234375 0 -0.453125l0 -2.21875q0 -0.9375 0.1875 -1.640625q0.1875 -0.703125 0.5625 -1.15625q0.328125 -0.359375 0.78125 -0.53125q0.46875 -0.1875 1.0625 -0.1875q0.59375 0 1.046875 0.171875q0.453125 0.171875 0.765625 0.515625q0.3125 0.328125 0.5 0.84375q0.1875 0.5 0.265625 1.15625l-5.171875 3.96875zm5.203125 0.6875q0 0.96875 -0.203125 1.6875q-0.1875 0.71875 -0.609375 1.171875q-0.3125 0.328125 -0.765625 0.5q-0.4375 0.171875 -1.015625 0.171875q-0.546875 0 -0.984375 -0.15625q-0.4375 -0.15625 -0.734375 -0.46875q-0.34375 -0.328125 -0.5625 -0.828125q-0.203125 -0.515625 -0.28125 -1.171875l5.15625 -3.953125q0 0.265625 0 0.65625q0 0.375 0 0.515625l0 1.875zm10.023712 4.71875l0 -13.265625l-0.125 0l-5.03125 1.9375l0 1.53125l3.46875 -1.3125l0 11.109375l1.6875 0zm11.195587 0l0 -13.265625l-0.125 0l-5.03125 1.9375l0 1.53125l3.46875 -1.3125l0 11.109375l1.6875 0zm14.054932 -5.078125l0 -3.109375q0 -1.265625 -0.296875 -2.234375q-0.28125 -0.984375 -0.828125 -1.65625q-0.5625 -0.671875 -1.359375 -1.015625q-0.796875 -0.359375 -1.8125 -0.359375q-1.015625 0 -1.8125 0.359375q-0.796875 0.34375 -1.34375 1.015625q-0.546875 0.671875 -0.84375 1.65625q-0.28125 0.96875 -0.28125 2.234375l0 3.109375q0 1.265625 0.28125 2.25q0.296875 0.984375 0.84375 1.640625q0.5625 0.6875 1.359375 1.03125q0.8125 0.34375 1.8125 0.34375q1.03125 0 1.8125 -0.34375q0.796875 -0.359375 1.34375 -1.03125q0.546875 -0.65625 0.828125 -1.640625q0.296875 -0.984375 0.296875 -2.25zm-6.890625 -0.328125q0 -0.234375 0 -0.46875q0 -0.234375 0 -0.453125l0 -2.21875q0 -0.9375 0.1875 -1.640625q0.1875 -0.703125 0.5625 -1.15625q0.328125 -0.359375 0.78125 -0.53125q0.46875 -0.1875 1.0625 -0.1875q0.59375 0 1.046875 0.171875q0.453125 0.171875 0.765625 0.515625q0.3125 0.328125 0.5 0.84375q0.1875 0.5 0.265625 1.15625l-5.171875 3.96875zm5.203125 0.6875q0 0.96875 -0.203125 1.6875q-0.1875 0.71875 -0.609375 1.171875q-0.3125 0.328125 -0.765625 0.5q-0.4375 0.171875 -1.015625 0.171875q-0.546875 0 -0.984375 -0.15625q-0.4375 -0.15625 -0.734375 -0.46875q-0.34375 -0.328125 -0.5625 -0.828125q-0.203125 -0.515625 -0.28125 -1.171875l5.15625 -3.953125q0 0.265625 0 0.65625q0 0.375 0 0.515625l0 1.875zm10.023682 4.71875l0 -13.265625l-0.125 0l-5.03125 1.9375l0 1.53125l3.46875 -1.3125l0 11.109375l1.6875 0zm11.195587 0l0 -13.265625l-0.125 0l-5.03125 1.9375l0 1.53125l3.46875 -1.3125l0 11.109375l1.6875 0zm14.054962 -5.078125l0 -3.109375q0 -1.265625 -0.296875 -2.234375q-0.28125 -0.984375 -0.828125 -1.65625q-0.5625 -0.671875 -1.359375 -1.015625q-0.796875 -0.359375 -1.8125 -0.359375q-1.015625 0 -1.8125 0.359375q-0.796875 0.34375 -1.34375 1.015625q-0.546875 0.671875 -0.84375 1.65625q-0.28125 0.96875 -0.28125 2.234375l0 3.109375q0 1.265625 0.28125 2.25q0.296875 0.984375 0.84375 1.640625q0.5625 0.6875 1.359375 1.03125q0.8125 0.34375 1.8125 0.34375q1.03125 0 1.8125 -0.34375q0.796875 -0.359375 1.34375 -1.03125q0.546875 -0.65625 0.828125 -1.640625q0.296875 -0.984375 0.296875 -2.25zm-6.890625 -0.328125q0 -0.234375 0 -0.46875q0 -0.234375 0 -0.453125l0 -2.21875q0 -0.9375 0.1875 -1.640625q0.1875 -0.703125 0.5625 -1.15625q0.328125 -0.359375 0.78125 -0.53125q0.46875 -0.1875 1.0625 -0.1875q0.59375 0 1.046875 0.171875q0.453125 0.171875 0.765625 0.515625q0.3125 0.328125 0.5 0.84375q0.1875 0.5 0.265625 1.15625l-5.171875 3.96875zm5.203125 0.6875q0 0.96875 -0.203125 1.6875q-0.1875 0.71875 -0.609375 1.171875q-0.3125 0.328125 -0.765625 0.5q-0.4375 0.171875 -1.015625 0.171875q-0.546875 0 -0.984375 -0.15625q-0.4375 -0.15625 -0.734375 -0.46875q-0.34375 -0.328125 -0.5625 -0.828125q-0.203125 -0.515625 -0.28125 -1.171875l5.15625 -3.953125q0 0.265625 0 0.65625q0 0.375 0 0.515625l0 1.875z" fill-rule="nonzero"/><path fill="#ff0000" d="m443.79285 296.9723l0 -13.265625l-0.140625 0l-5.765625 2.09375l0 2.203125l3.34375 -1.203125l0 10.171875l2.5625 0z" fill-rule="nonzero"/><path fill="#ff9900" d="m468.60583 291.89417l0 -3.109375q0 -1.265625 -0.296875 -2.234375q-0.28125 -0.984375 -0.828125 -1.65625q-0.5625 -0.671875 -1.359375 -1.015625q-0.796875 -0.359375 -1.8125 -0.359375q-1.015625 0 -1.8125 0.359375q-0.796875 0.34375 -1.34375 1.015625q-0.546875 0.671875 -0.84375 1.65625q-0.28125 0.96875 -0.28125 2.234375l0 3.109375q0 1.265625 0.28125 2.25q0.296875 0.984375 0.84375 1.640625q0.5625 0.6875 1.359375 1.03125q0.8125 0.34375 1.8125 0.34375q1.03125 0 1.8125 -0.34375q0.796875 -0.359375 1.34375 -1.03125q0.546875 -0.65625 0.828125 -1.640625q0.296875 -0.984375 0.296875 -2.25zm-6.890625 -0.328125q0 -0.234375 0 -0.46875q0 -0.234375 0 -0.453125l0 -2.21875q0 -0.9375 0.1875 -1.640625q0.1875 -0.703125 0.5625 -1.15625q0.328125 -0.359375 0.78125 -0.53125q0.46875 -0.1875 1.0625 -0.1875q0.59375 0 1.046875 0.171875q0.453125 0.171875 0.765625 0.515625q0.3125 0.328125 0.5 0.84375q0.1875 0.5 0.265625 1.15625l-5.171875 3.96875zm5.203125 0.6875q0 0.96875 -0.203125 1.6875q-0.1875 0.71875 -0.609375 1.171875q-0.3125 0.328125 -0.765625 0.5q-0.4375 0.171875 -1.015625 0.171875q-0.546875 0 -0.984375 -0.15625q-0.4375 -0.15625 -0.734375 -0.46875q-0.34375 -0.328125 -0.5625 -0.828125q-0.203125 -0.515625 -0.28125 -1.171875l5.15625 -3.953125q0 0.265625 0 0.65625q0 0.375 0 0.515625l0 1.875zm10.023712 4.71875l0 -13.265625l-0.125 0l-5.03125 1.9375l0 1.53125l3.46875 -1.3125l0 11.109375l1.6875 0zm11.195587 0l0 -13.265625l-0.125 0l-5.03125 1.9375l0 1.53125l3.46875 -1.3125l0 11.109375l1.6875 0z" fill-rule="nonzero"/><path fill="#ff0000" d="m499.7707 296.9723l0 -13.265625l-0.140625 0l-5.765625 2.09375l0 2.203125l3.34375 -1.203125l0 10.171875l2.5625 0z" fill-rule="nonzero"/><path fill="#ff9900" d="m510.52875 296.9723l0 -13.265625l-0.125 0l-5.03125 1.9375l0 1.53125l3.46875 -1.3125l0 11.109375l1.6875 0zm11.195557 0l0 -13.265625l-0.125 0l-5.03125 1.9375l0 1.53125l3.46875 -1.3125l0 11.109375l1.6875 0zm14.054993 -5.078125l0 -3.109375q0 -1.265625 -0.296875 -2.234375q-0.28125 -0.984375 -0.828125 -1.65625q-0.5625 -0.671875 -1.359375 -1.015625q-0.796875 -0.359375 -1.8125 -0.359375q-1.015625 0 -1.8125 0.359375q-0.796875 0.34375 -1.34375 1.015625q-0.546875 0.671875 -0.84375 1.65625q-0.28125 0.96875 -0.28125 2.234375l0 3.109375q0 1.265625 0.28125 2.25q0.296875 0.984375 0.84375 1.640625q0.5625 0.6875 1.359375 1.03125q0.8125 0.34375 1.8125 0.34375q1.03125 0 1.8125 -0.34375q0.796875 -0.359375 1.34375 -1.03125q0.546875 -0.65625 0.828125 -1.640625q0.296875 -0.984375 0.296875 -2.25zm-6.890625 -0.328125q0 -0.234375 0 -0.46875q0 -0.234375 0 -0.453125l0 -2.21875q0 -0.9375 0.1875 -1.640625q0.1875 -0.703125 0.5625 -1.15625q0.328125 -0.359375 0.78125 -0.53125q0.46875 -0.1875 1.0625 -0.1875q0.59375 0 1.046875 0.171875q0.453125 0.171875 0.765625 0.515625q0.3125 0.328125 0.5 0.84375q0.1875 0.5 0.265625 1.15625l-5.171875 3.96875zm5.203125 0.6875q0 0.96875 -0.203125 1.6875q-0.1875 0.71875 -0.609375 1.171875q-0.3125 0.328125 -0.765625 0.5q-0.4375 0.171875 -1.015625 0.171875q-0.546875 0 -0.984375 -0.15625q-0.4375 -0.15625 -0.734375 -0.46875q-0.34375 -0.328125 -0.5625 -0.828125q-0.203125 -0.515625 -0.28125 -1.171875l5.15625 -3.953125q0 0.265625 0 0.65625q0 0.375 0 0.515625l0 1.875zm12.883057 -0.359375l0 -3.109375q0 -1.265625 -0.296875 -2.234375q-0.28125 -0.984375 -0.828125 -1.65625q-0.5625 -0.671875 -1.359375 -1.015625q-0.796875 -0.359375 -1.8125 -0.359375q-1.015625 0 -1.8125 0.359375q-0.796875 0.34375 -1.34375 1.015625q-0.546875 0.671875 -0.84375 1.65625q-0.28125 0.96875 -0.28125 2.234375l0 3.109375q0 1.265625 0.28125 2.25q0.296875 0.984375 0.84375 1.640625q0.5625 0.6875 1.359375 1.03125q0.8125 0.34375 1.8125 0.34375q1.03125 0 1.8125 -0.34375q0.796875 -0.359375 1.34375 -1.03125q0.546875 -0.65625 0.828125 -1.640625q0.296875 -0.984375 0.296875 -2.25zm-6.890625 -0.328125q0 -0.234375 0 -0.46875q0 -0.234375 0 -0.453125l0 -2.21875q0 -0.9375 0.1875 -1.640625q0.1875 -0.703125 0.5625 -1.15625q0.328125 -0.359375 0.78125 -0.53125q0.46875 -0.1875 1.0625 -0.1875q0.59375 0 1.046875 0.171875q0.453125 0.171875 0.765625 0.515625q0.3125 0.328125 0.5 0.84375q0.1875 0.5 0.265625 1.15625l-5.171875 3.96875zm5.203125 0.6875q0 0.96875 -0.203125 1.6875q-0.1875 0.71875 -0.609375 1.171875q-0.3125 0.328125 -0.765625 0.5q-0.4375 0.171875 -1.015625 0.171875q-0.546875 0 -0.984375 -0.15625q-0.4375 -0.15625 -0.734375 -0.46875q-0.34375 -0.328125 -0.5625 -0.828125q-0.203125 -0.515625 -0.28125 -1.171875l5.15625 -3.953125q0 0.265625 0 0.65625q0 0.375 0 0.515625l0 1.875zm24.078613 -0.359375l0 -3.109375q0 -1.265625 -0.296875 -2.234375q-0.28125 -0.984375 -0.828125 -1.65625q-0.5625 -0.671875 -1.359375 -1.015625q-0.796875 -0.359375 -1.8125 -0.359375q-1.015625 0 -1.8125 0.359375q-0.796875 0.34375 -1.34375 1.015625q-0.546875 0.671875 -0.84375 1.65625q-0.28125 0.96875 -0.28125 2.234375l0 3.109375q0 1.265625 0.28125 2.25q0.296875 0.984375 0.84375 1.640625q0.5625 0.6875 1.359375 1.03125q0.8125 0.34375 1.8125 0.34375q1.03125 0 1.8125 -0.34375q0.796875 -0.359375 1.34375 -1.03125q0.546875 -0.65625 0.828125 -1.640625q0.296875 -0.984375 0.296875 -2.25zm-6.890625 -0.328125q0 -0.234375 0 -0.46875q0 -0.234375 0 -0.453125l0 -2.21875q0 -0.9375 0.1875 -1.640625q0.1875 -0.703125 0.5625 -1.15625q0.328125 -0.359375 0.78125 -0.53125q0.46875 -0.1875 1.0625 -0.1875q0.59375 0 1.046875 0.171875q0.453125 0.171875 0.765625 0.515625q0.3125 0.328125 0.5 0.84375q0.1875 0.5 0.265625 1.15625l-5.171875 3.96875zm5.203125 0.6875q0 0.96875 -0.203125 1.6875q-0.1875 0.71875 -0.609375 1.171875q-0.3125 0.328125 -0.765625 0.5q-0.4375 0.171875 -1.015625 0.171875q-0.546875 0 -0.984375 -0.15625q-0.4375 -0.15625 -0.734375 -0.46875q-0.34375 -0.328125 -0.5625 -0.828125q-0.203125 -0.515625 -0.28125 -1.171875l5.15625 -3.953125q0 0.265625 0 0.65625q0 0.375 0 0.515625l0 1.875z" fill-rule="nonzero"/><path fill="#ff0000" d="m580.57715 291.9254l0 -3.171875q0 -1.28125 -0.3125 -2.25q-0.296875 -0.984375 -0.84375 -1.65625q-0.5625 -0.65625 -1.375 -0.984375q-0.796875 -0.34375 -1.796875 -0.34375q-1.0 0 -1.796875 0.34375q-0.796875 0.328125 -1.34375 0.984375q-0.5625 0.671875 -0.875 1.65625q-0.296875 0.96875 -0.296875 2.25l0 3.171875q0 1.28125 0.296875 2.265625q0.3125 0.984375 0.875 1.640625q0.5625 0.65625 1.359375 1.0q0.8125 0.328125 1.796875 0.328125q1.0 0 1.796875 -0.328125q0.8125 -0.34375 1.359375 -1.0q0.5625 -0.65625 0.859375 -1.640625q0.296875 -0.984375 0.296875 -2.265625zm-6.09375 -1.09375q0 -0.28125 0 -0.421875q0 -0.15625 0 -0.59375l0 -1.46875q0 -0.734375 0.109375 -1.265625q0.125 -0.546875 0.359375 -0.875q0.21875 -0.328125 0.546875 -0.484375q0.328125 -0.15625 0.75 -0.15625q0.375 0 0.6875 0.125q0.3125 0.125 0.515625 0.375q0.265625 0.328125 0.40625 0.859375q0.140625 0.53125 0.171875 1.28125l-3.546875 2.625zm3.546875 1.46875q0 0.75 -0.125 1.296875q-0.109375 0.53125 -0.328125 0.875q-0.21875 0.328125 -0.546875 0.5q-0.328125 0.15625 -0.765625 0.15625q-0.46875 0 -0.8125 -0.1875q-0.328125 -0.1875 -0.546875 -0.5625q-0.1875 -0.296875 -0.296875 -0.765625q-0.09375 -0.46875 -0.125 -1.0625l3.546875 -2.625q0 0.265625 0 0.40625q0 0.140625 0 0.4375l0 1.53125z" fill-rule="nonzero"/><path fill="#ff9900" d="m588.89777 296.9723l0 -13.265625l-0.125 0l-5.03125 1.9375l0 1.53125l3.46875 -1.3125l0 11.109375l1.6875 0zm14.054932 -5.078125l0 -3.109375q0 -1.265625 -0.296875 -2.234375q-0.28125 -0.984375 -0.828125 -1.65625q-0.5625 -0.671875 -1.359375 -1.015625q-0.796875 -0.359375 -1.8125 -0.359375q-1.015625 0 -1.8125 0.359375q-0.796875 0.34375 -1.34375 1.015625q-0.546875 0.671875 -0.84375 1.65625q-0.28125 0.96875 -0.28125 2.234375l0 3.109375q0 1.265625 0.28125 2.25q0.296875 0.984375 0.84375 1.640625q0.5625 0.6875 1.359375 1.03125q0.8125 0.34375 1.8125 0.34375q1.03125 0 1.8125 -0.34375q0.796875 -0.359375 1.34375 -1.03125q0.546875 -0.65625 0.828125 -1.640625q0.296875 -0.984375 0.296875 -2.25zm-6.890625 -0.328125q0 -0.234375 0 -0.46875q0 -0.234375 0 -0.453125l0 -2.21875q0 -0.9375 0.1875 -1.640625q0.1875 -0.703125 0.5625 -1.15625q0.328125 -0.359375 0.78125 -0.53125q0.46875 -0.1875 1.0625 -0.1875q0.59375 0 1.046875 0.171875q0.453125 0.171875 0.765625 0.515625q0.3125 0.328125 0.5 0.84375q0.1875 0.5 0.265625 1.15625l-5.171875 3.96875zm5.203125 0.6875q0 0.96875 -0.203125 1.6875q-0.1875 0.71875 -0.609375 1.171875q-0.3125 0.328125 -0.765625 0.5q-0.4375 0.171875 -1.015625 0.171875q-0.546875 0 -0.984375 -0.15625q-0.4375 -0.15625 -0.734375 -0.46875q-0.34375 -0.328125 -0.5625 -0.828125q-0.203125 -0.515625 -0.28125 -1.171875l5.15625 -3.953125q0 0.265625 0 0.65625q0 0.375 0 0.515625l0 1.875zm10.023743 4.71875l0 -13.265625l-0.125 0l-5.03125 1.9375l0 1.53125l3.46875 -1.3125l0 11.109375l1.6875 0z" fill-rule="nonzero"/><path fill="#ff0000" d="m625.3595 291.9254l0 -3.171875q0 -1.28125 -0.3125 -2.25q-0.296875 -0.984375 -0.84375 -1.65625q-0.5625 -0.65625 -1.375 -0.984375q-0.796875 -0.34375 -1.796875 -0.34375q-1.0 0 -1.796875 0.34375q-0.796875 0.328125 -1.34375 0.984375q-0.5625 0.671875 -0.875 1.65625q-0.296875 0.96875 -0.296875 2.25l0 3.171875q0 1.28125 0.296875 2.265625q0.3125 0.984375 0.875 1.640625q0.5625 0.65625 1.359375 1.0q0.8125 0.328125 1.796875 0.328125q1.0 0 1.796875 -0.328125q0.8125 -0.34375 1.359375 -1.0q0.5625 -0.65625 0.859375 -1.640625q0.296875 -0.984375 0.296875 -2.265625zm-6.09375 -1.09375q0 -0.28125 0 -0.421875q0 -0.15625 0 -0.59375l0 -1.46875q0 -0.734375 0.109375 -1.265625q0.125 -0.546875 0.359375 -0.875q0.21875 -0.328125 0.546875 -0.484375q0.328125 -0.15625 0.75 -0.15625q0.375 0 0.6875 0.125q0.3125 0.125 0.515625 0.375q0.265625 0.328125 0.40625 0.859375q0.140625 0.53125 0.171875 1.28125l-3.546875 2.625zm3.546875 1.46875q0 0.75 -0.125 1.296875q-0.109375 0.53125 -0.328125 0.875q-0.21875 0.328125 -0.546875 0.5q-0.328125 0.15625 -0.765625 0.15625q-0.46875 0 -0.8125 -0.1875q-0.328125 -0.1875 -0.546875 -0.5625q-0.1875 -0.296875 -0.296875 -0.765625q-0.09375 -0.46875 -0.125 -1.0625l3.546875 -2.625q0 0.265625 0 0.40625q0 0.140625 0 0.4375l0 1.53125z" fill-rule="nonzero"/><path fill="#ff9900" d="m633.68005 296.9723l0 -13.265625l-0.125 0l-5.03125 1.9375l0 1.53125l3.46875 -1.3125l0 11.109375l1.6875 0zm11.195557 0l0 -13.265625l-0.125 0l-5.03125 1.9375l0 1.53125l3.46875 -1.3125l0 11.109375l1.6875 0z" fill-rule="nonzero"/><path fill="#000000" fill-opacity="0.0" d="m43.90284 340.36688l717.6378 0l0 48.59842l-717.6378 0z" fill-rule="evenodd"/><path fill="#ff0000" d="m198.40065 357.42752l0 2.078125l2.484375 0l0 8.015625q0 0.46875 -0.140625 0.78125q-0.125 0.3125 -0.359375 0.5q-0.234375 0.203125 -0.5625 0.28125q-0.3125 0.078125 -0.6875 0.078125q-0.09375 0 -0.28125 0q-0.1875 0 -0.375 -0.03125q-0.21875 0 -0.421875 -0.03125q-0.1875 -0.015625 -0.296875 -0.046875l-0.125 2.0625q0.171875 0.03125 0.328125 0.0625q0.171875 0.03125 0.34375 0.046875q0.234375 0.03125 0.46875 0.03125q0.25 0.015625 0.484375 0.015625q1.0 0 1.765625 -0.21875q0.78125 -0.21875 1.3125 -0.6875q0.546875 -0.453125 0.828125 -1.15625q0.28125 -0.703125 0.28125 -1.6875l0 -10.09375l-5.046875 0zm2.3125 -2.515625q0 0.578125 0.390625 0.96875q0.40625 0.375 1.0625 0.375q0.671875 0 1.0625 -0.375q0.40625 -0.375 0.40625 -0.96875q0 -0.59375 -0.40625 -0.96875q-0.390625 -0.390625 -1.0625 -0.390625q-0.671875 0 -1.0625 0.40625q-0.390625 0.390625 -0.390625 0.953125zm103.08824 12.375l2.578125 0l0 -0.15625q-0.203125 -0.375 -0.296875 -0.890625q-0.09375 -0.515625 -0.09375 -1.3125l0 -4.234375q0 -0.84375 -0.328125 -1.5q-0.3125 -0.65625 -0.875 -1.078125q-0.5625 -0.421875 -1.34375 -0.640625q-0.765625 -0.21875 -1.65625 -0.21875q-1.0 0 -1.765625 0.25q-0.7655945 0.25 -1.2968445 0.671875q-0.53125 0.421875 -0.8125 1.0q-0.28125 0.5625 -0.28125 1.1875l2.5312195 0q0 -0.265625 0.078125 -0.484375q0.078125 -0.21875 0.25 -0.375q0.171875 -0.171875 0.453125 -0.265625q0.296875 -0.09375 0.703125 -0.09375q0.453125 0 0.796875 0.109375q0.34375 0.109375 0.578125 0.328125q0.21875 0.203125 0.328125 0.484375q0.109375 0.265625 0.109375 0.609375l0 0.59375l-1.421875 0q-1.09375 0 -1.9375 0.203125q-0.8437195 0.1875 -1.4062195 0.5625q-0.640625 0.40625 -0.96875 1.046875q-0.3125 0.625 -0.3125 1.4375q0 0.640625 0.25 1.1875q0.265625 0.546875 0.71875 0.9375q0.453125 0.390625 1.078125 0.609375q0.6405945 0.21875 1.3905945 0.21875q0.46875 0 0.859375 -0.09375q0.40625 -0.078125 0.75 -0.234375q0.328125 -0.15625 0.59375 -0.34375q0.28125 -0.203125 0.484375 -0.4375q0.046875 0.265625 0.109375 0.5q0.0625 0.234375 0.15625 0.421875zm-2.40625 -1.78125q-0.359375 0 -0.625 -0.078125q-0.265625 -0.09375 -0.453125 -0.234375q-0.1875 -0.15625 -0.28125 -0.375q-0.09375 -0.234375 -0.09375 -0.484375q0 -0.34375 0.125 -0.625q0.125 -0.296875 0.390625 -0.5q0.265625 -0.203125 0.6875 -0.3125q0.421875 -0.125 1.015625 -0.125l1.296875 0l0 1.703125q-0.109375 0.1875 -0.3125 0.375q-0.1875 0.1875 -0.453125 0.328125q-0.265625 0.15625 -0.59375 0.25q-0.328125 0.078125 -0.703125 0.078125zm98.58829 -8.078125l-2.171875 0l0 9.859375l2.296875 0l0 -7.375q0.046875 -0.125 0.09375 -0.21875q0.0625 -0.109375 0.140625 -0.171875q0.09375 -0.109375 0.21875 -0.15625q0.140625 -0.0625 0.296875 -0.0625q0.140625 0 0.265625 0.046875q0.140625 0.046875 0.234375 0.140625q0.09375 0.09375 0.140625 0.28125q0.0625 0.1875 0.0625 0.46875l0 7.046875l2.234375 0l0 -7.265625q0 -0.109375 0 -0.171875q0 -0.0625 0 -0.09375q0.046875 -0.09375 0.109375 -0.171875q0.0625 -0.078125 0.140625 -0.140625q0.09375 -0.0625 0.203125 -0.09375q0.125 -0.046875 0.265625 -0.046875q0.140625 0 0.265625 0.046875q0.140625 0.046875 0.234375 0.140625q0.109375 0.109375 0.15625 0.296875q0.0625 0.171875 0.0625 0.453125l0 7.046875l2.3125 0l0 -7.03125q0 -0.828125 -0.15625 -1.390625q-0.15625 -0.5625 -0.453125 -0.9375q-0.28125 -0.34375 -0.671875 -0.5q-0.390625 -0.171875 -0.828125 -0.171875q-0.359375 0 -0.671875 0.09375q-0.296875 0.078125 -0.53125 0.25q-0.1875 0.125 -0.34375 0.3125q-0.15625 0.171875 -0.28125 0.390625q-0.09375 -0.234375 -0.203125 -0.40625q-0.109375 -0.1875 -0.265625 -0.3125q-0.203125 -0.171875 -0.484375 -0.25q-0.265625 -0.078125 -0.609375 -0.078125q-0.71875 0 -1.21875 0.375q-0.484375 0.359375 -0.765625 1.0l-0.078125 -1.203125zm104.33823 13.59375l0 -17.0l-1.578125 0l0 17.0l1.578125 0zm100.97876 -11.125l0 -3.59375l-2.40625 0l0 3.59375l-3.34375 0l0 2.3125l3.34375 0l0 3.75l2.40625 0l0 -3.75l3.34375 0l0 -2.3125l-3.34375 0z" fill-rule="nonzero"/><path fill="#000000" fill-opacity="0.0" d="m200.0 324.70593l0 18.992126" fill-rule="evenodd"/><path stroke="#000000" stroke-width="1.0" stroke-linejoin="round" stroke-linecap="butt" d="m200.0 324.7059l0 12.992126" fill-rule="evenodd"/><path fill="#000000" stroke="#000000" stroke-width="1.0" stroke-linecap="butt" d="m198.34827 337.69803l1.6517334 4.5381165l1.6517334 -4.5381165z" fill-rule="evenodd"/><path fill="#000000" fill-opacity="0.0" d="m302.44476 324.70593l0 18.992126" fill-rule="evenodd"/><path stroke="#000000" stroke-width="1.0" stroke-linejoin="round" stroke-linecap="butt" d="m302.44476 324.7059l0 12.992126" fill-rule="evenodd"/><path fill="#000000" stroke="#000000" stroke-width="1.0" stroke-linecap="butt" d="m300.79303 337.69803l1.6517334 4.5381165l1.6517334 -4.5381165z" fill-rule="evenodd"/><path fill="#000000" fill-opacity="0.0" d="m402.80457 324.70593l0 18.992126" fill-rule="evenodd"/><path stroke="#000000" stroke-width="1.0" stroke-linejoin="round" stroke-linecap="butt" d="m402.80453 324.7059l0 12.992126" fill-rule="evenodd"/><path fill="#000000" stroke="#000000" stroke-width="1.0" stroke-linecap="butt" d="m401.1528 337.69803l1.6517334 4.5381165l1.6517334 -4.5381165z" fill-rule="evenodd"/><path fill="#000000" fill-opacity="0.0" d="m503.2722 324.70593l0 18.992126" fill-rule="evenodd"/><path stroke="#000000" stroke-width="1.0" stroke-linejoin="round" stroke-linecap="butt" d="m503.2722 324.7059l0 12.992126" fill-rule="evenodd"/><path fill="#000000" stroke="#000000" stroke-width="1.0" stroke-linecap="butt" d="m501.62045 337.69803l1.6517334 4.5381165l1.6517334 -4.5381165z" fill-rule="evenodd"/><path fill="#000000" fill-opacity="0.0" d="m604.0699 324.70593l0 18.992126" fill-rule="evenodd"/><path stroke="#000000" stroke-width="1.0" stroke-linejoin="round" stroke-linecap="butt" d="m604.0699 324.7059l0 12.992126" fill-rule="evenodd"/><path fill="#000000" stroke="#000000" stroke-width="1.0" stroke-linecap="butt" d="m602.41815 337.69803l1.6517334 4.5381165l1.6517334 -4.5381165z" fill-rule="evenodd"/><path fill="#000000" fill-opacity="0.0" d="m402.72174 119.2125l0 42.645668" fill-rule="evenodd"/><path stroke="#000000" stroke-width="1.0" stroke-linejoin="round" stroke-linecap="butt" d="m402.72174 119.212494l0 36.645676" fill-rule="evenodd"/><path fill="#000000" stroke="#000000" stroke-width="1.0" stroke-linecap="butt" d="m401.07 155.85817l1.6517334 4.538086l1.6517334 -4.538086z" fill-rule="evenodd"/><path fill="#cfe2f3" d="m308.34897 179.33403l0 0c-1.8571167 -5.121002 4.2401733 -10.190475 15.704559 -13.057266c11.464386 -2.8667908 26.285248 -3.028122 38.173553 -0.4155426l0 0c4.211212 -2.9775543 11.918945 -5.0333557 20.791779 -5.5455475c8.872833 -0.51220703 17.868591 0.5793457 24.266266 2.9444885l0 0c3.5874023 -2.699646 10.631348 -4.5134583 18.632263 -4.797806c8.000885 -0.2843628 15.826447 1.0010071 20.699738 3.3999634l0 0c6.4811707 -2.8616333 16.792908 -4.0664825 26.473206 -3.0932465c9.680298 0.97325134 16.99054 3.9498138 18.767548 7.641693l0 0c7.9405212 0.8127136 14.55484 2.8787384 18.133972 5.664276c3.579132 2.7855377 3.7720032 6.017334 0.5288086 8.860397l0 0c7.8191223 3.8185425 9.648163 8.906723 4.804657 13.365692c-4.843506 4.458969 -15.631958 7.6188507 -28.339264 8.300415c-0.08956909 4.184906 -6.2062073 8.024918 -15.99231 10.0399475c-9.786072 2.0150146 -21.713501 1.8903961 -31.184875 -0.32585144l0 0c-4.0343018 5.012146 -15.389557 8.700043 -29.15982 9.470367c-13.770264 0.77033997 -27.487 -1.5149994 -35.22403 -5.868637l0 0c-9.484009 2.1459198 -20.864014 2.7640991 -31.572937 1.7150726c-10.708923 -1.0490265 -19.844666 -3.6768951 -25.346436 -7.290802l0 0c-9.691437 0.42555237 -19.061737 -1.4585266 -23.46045 -4.7171783c-4.3986816 -3.2586517 -2.8894043 -7.198181 3.7788086 -9.863403l0 0c-8.64502 -1.9092407 -13.056244 -5.697815 -10.93335 -9.390137c2.1228638 -3.6923065 10.298767 -6.45166 20.264313 -6.8391724z" fill-rule="evenodd"/><path fill="#000000" fill-opacity="0.0" d="m298.82645 195.7607l0 0c4.0796204 0.90097046 8.7925415 1.3096771 13.505951 1.1712341m6.173584 13.409683c2.026947 -0.08900452 4.013733 -0.27748108 5.9091187 -0.56056213m51.007385 6.1360474c-1.4255981 -0.8022003 -2.6192017 -1.6594238 -3.5604553 -2.5570526m67.94678 -1.0448303l0 0c0.73553467 -0.91378784 1.2120667 -1.8542786 1.4216919 -2.8057709m45.753723 -6.9079742c0.095336914 -4.45549 -6.6488647 -8.534973 -17.335785 -10.486191m40.870148 -11.179443c-1.7307129 1.5171814 -4.3728333 2.863037 -7.719208 3.9320679m-10.941925 -18.457138l0 0c0.29489136 0.6126709 0.43136597 1.2345428 0.40753174 1.8570099m-45.647522 -6.4052734l0 0c-1.6167297 0.7138214 -2.9487 1.5115204 -3.9544373 2.3682556m-35.37793 -0.9707184l0 0c-0.86157227 0.64837646 -1.5049438 1.3344574 -1.9152832 2.04245m-43.143402 0.55867004l0 0c2.5155334 0.55281067 4.8427734 1.2182007 6.9305725 1.9815216m-60.808014 11.491348l0 0c0.25598145 0.7057953 0.6604004 1.4029083 1.2095032 2.0847778" fill-rule="evenodd"/><path stroke="#000000" stroke-width="1.0" stroke-linejoin="round" stroke-linecap="butt" d="m308.34897 179.33403l0 0c-1.8571167 -5.121002 4.2401733 -10.190475 15.704559 -13.057266c11.464386 -2.8667908 26.285248 -3.028122 38.173553 -0.4155426l0 0c4.211212 -2.9775543 11.918945 -5.0333557 20.791779 -5.5455475c8.872833 -0.51220703 17.868591 0.5793457 24.266266 2.9444885l0 0c3.5874023 -2.699646 10.631348 -4.5134583 18.632263 -4.797806c8.000885 -0.2843628 15.826447 1.0010071 20.699738 3.3999634l0 0c6.4811707 -2.8616333 16.792908 -4.0664825 26.473206 -3.0932465c9.680298 0.97325134 16.99054 3.9498138 18.767548 7.641693l0 0c7.9405212 0.8127136 14.55484 2.8787384 18.133972 5.664276c3.579132 2.7855377 3.7720032 6.017334 0.5288086 8.860397l0 0c7.8191223 3.8185425 9.648163 8.906723 4.804657 13.365692c-4.843506 4.458969 -15.631958 7.6188507 -28.339264 8.300415c-0.08956909 4.184906 -6.2062073 8.024918 -15.99231 10.0399475c-9.786072 2.0150146 -21.713501 1.8903961 -31.184875 -0.32585144l0 0c-4.0343018 5.012146 -15.389557 8.700043 -29.15982 9.470367c-13.770264 0.77033997 -27.487 -1.5149994 -35.22403 -5.868637l0 0c-9.484009 2.1459198 -20.864014 2.7640991 -31.572937 1.7150726c-10.708923 -1.0490265 -19.844666 -3.6768951 -25.346436 -7.290802l0 0c-9.691437 0.42555237 -19.061737 -1.4585266 -23.46045 -4.7171783c-4.3986816 -3.2586517 -2.8894043 -7.198181 3.7788086 -9.863403l0 0c-8.64502 -1.9092407 -13.056244 -5.697815 -10.93335 -9.390137c2.1228638 -3.6923065 10.298767 -6.45166 20.264313 -6.8391724z" fill-rule="evenodd"/><path stroke="#000000" stroke-width="1.0" stroke-linejoin="round" stroke-linecap="butt" d="m298.82645 195.7607l0 0c4.0796204 0.90097046 8.7925415 1.3096771 13.505951 1.1712341m6.173584 13.409683c2.026947 -0.08900452 4.013733 -0.27748108 5.9091187 -0.56056213m51.007385 6.1360474c-1.4255981 -0.8022003 -2.6192017 -1.6594238 -3.5604553 -2.5570526m67.94678 -1.0448303l0 0c0.73553467 -0.91378784 1.2120667 -1.8542786 1.4216919 -2.8057709m45.753723 -6.9079742c0.095336914 -4.45549 -6.6488647 -8.534973 -17.335785 -10.486191m40.870148 -11.179443c-1.7307129 1.5171814 -4.3728333 2.863037 -7.719208 3.9320679m-10.941925 -18.457138l0 0c0.29489136 0.6126709 0.43136597 1.2345428 0.40753174 1.8570099m-45.647522 -6.4052734l0 0c-1.6167297 0.7138214 -2.9487 1.5115204 -3.9544373 2.3682556m-35.37793 -0.9707184l0 0c-0.86157227 0.64837646 -1.5049438 1.3344574 -1.9152832 2.04245m-43.143402 0.55867004l0 0c2.5155334 0.55281067 4.8427734 1.2182007 6.9305725 1.9815216m-60.808014 11.491348l0 0c0.25598145 0.7057953 0.6604004 1.4029083 1.2095032 2.0847778" fill-rule="evenodd"/><path fill="#000000" d="m335.2887 195.40787l0 -13.359375l1.8125 0l7.015625 10.484375l0 -10.484375l1.6875 0l0 13.359375l-1.8125 0l-7.015625 -10.5l0 10.5l-1.6875 0zm12.676086 -4.84375q0 -2.6875 1.484375 -3.96875q1.25 -1.078125 3.046875 -1.078125q2.0 0 3.265625 1.3125q1.265625 1.296875 1.265625 3.609375q0 1.859375 -0.5625 2.9375q-0.5625 1.0625 -1.640625 1.65625q-1.0625 0.59375 -2.328125 0.59375q-2.03125 0 -3.28125 -1.296875q-1.25 -1.3125 -1.25 -3.765625zm1.6875 0q0 1.859375 0.796875 2.796875q0.8125 0.921875 2.046875 0.921875q1.21875 0 2.03125 -0.921875q0.8125 -0.9375 0.8125 -2.84375q0 -1.796875 -0.8125 -2.71875q-0.8125 -0.921875 -2.03125 -0.921875q-1.234375 0 -2.046875 0.921875q-0.796875 0.90625 -0.796875 2.765625zm9.297577 -6.625l0 -1.890625l1.640625 0l0 1.890625l-1.640625 0zm0 11.46875l0 -9.671875l1.640625 0l0 9.671875l-1.640625 0zm3.4885864 -2.890625l1.625 -0.25q0.125 0.96875 0.75 1.5q0.625 0.515625 1.75 0.515625q1.125 0 1.671875 -0.453125q0.546875 -0.46875 0.546875 -1.09375q0 -0.546875 -0.484375 -0.875q-0.328125 -0.21875 -1.671875 -0.546875q-1.8125 -0.46875 -2.515625 -0.796875q-0.6875 -0.328125 -1.046875 -0.90625q-0.359375 -0.59375 -0.359375 -1.3125q0 -0.640625 0.296875 -1.1875q0.296875 -0.5625 0.8125 -0.921875q0.375 -0.28125 1.03125 -0.46875q0.671875 -0.203125 1.421875 -0.203125q1.140625 0 2.0 0.328125q0.859375 0.328125 1.265625 0.890625q0.421875 0.5625 0.578125 1.5l-1.609375 0.21875q-0.109375 -0.75 -0.640625 -1.171875q-0.515625 -0.421875 -1.46875 -0.421875q-1.140625 0 -1.625 0.375q-0.46875 0.375 -0.46875 0.875q0 0.3125 0.1875 0.578125q0.203125 0.265625 0.640625 0.4375q0.234375 0.09375 1.4375 0.421875q1.75 0.453125 2.4375 0.75q0.6875 0.296875 1.078125 0.859375q0.390625 0.5625 0.390625 1.40625q0 0.828125 -0.484375 1.546875q-0.46875 0.71875 -1.375 1.125q-0.90625 0.390625 -2.046875 0.390625q-1.875 0 -2.875 -0.78125q-0.984375 -0.78125 -1.25 -2.328125zm9.90625 6.609375l-0.1875 -1.53125q0.546875 0.140625 0.9375 0.140625q0.546875 0 0.875 -0.1875q0.328125 -0.171875 0.546875 -0.5q0.15625 -0.25 0.5 -1.21875q0.046875 -0.140625 0.140625 -0.40625l-3.671875 -9.6875l1.765625 0l2.015625 5.59375q0.390625 1.078125 0.703125 2.25q0.28125 -1.125 0.671875 -2.203125l2.078125 -5.640625l1.640625 0l-3.6875 9.828125q-0.59375 1.609375 -0.921875 2.203125q-0.4375 0.8125 -1.0 1.1875q-0.5625 0.375 -1.34375 0.375q-0.484375 0 -1.0625 -0.203125zm24.323914 -8.40625l1.765625 0.453125q-0.5625 2.171875 -2.0 3.328125q-1.4375 1.140625 -3.53125 1.140625q-2.15625 0 -3.515625 -0.875q-1.34375 -0.890625 -2.0625 -2.546875q-0.703125 -1.671875 -0.703125 -3.59375q0 -2.078125 0.796875 -3.625q0.796875 -1.5625 2.265625 -2.359375q1.484375 -0.8125 3.25 -0.8125q2.0 0 3.359375 1.015625q1.375 1.015625 1.90625 2.875l-1.734375 0.40625q-0.46875 -1.453125 -1.359375 -2.109375q-0.875 -0.671875 -2.203125 -0.671875q-1.546875 0 -2.578125 0.734375q-1.03125 0.734375 -1.453125 1.984375q-0.421875 1.234375 -0.421875 2.5625q0 1.703125 0.5 2.96875q0.5 1.265625 1.546875 1.90625q1.046875 0.625 2.265625 0.625q1.484375 0 2.515625 -0.859375q1.03125 -0.859375 1.390625 -2.546875zm3.7385864 4.6875l0 -13.359375l1.640625 0l0 4.796875q1.140625 -1.328125 2.890625 -1.328125q1.078125 0 1.859375 0.421875q0.796875 0.421875 1.140625 1.171875q0.34375 0.75 0.34375 2.171875l0 6.125l-1.640625 0l0 -6.125q0 -1.234375 -0.53125 -1.796875q-0.53125 -0.5625 -1.515625 -0.5625q-0.71875 0 -1.359375 0.390625q-0.640625 0.375 -0.921875 1.015625q-0.265625 0.640625 -0.265625 1.78125l0 5.296875l-1.640625 0zm16.688202 -1.1875q-0.921875 0.765625 -1.765625 1.09375q-0.828125 0.3125 -1.796875 0.3125q-1.59375 0 -2.453125 -0.78125q-0.859375 -0.78125 -0.859375 -1.984375q0 -0.71875 0.328125 -1.296875q0.328125 -0.59375 0.84375 -0.9375q0.53125 -0.359375 1.1875 -0.546875q0.46875 -0.125 1.453125 -0.25q1.984375 -0.234375 2.921875 -0.5625q0.015625 -0.34375 0.015625 -0.421875q0 -1.0 -0.46875 -1.421875q-0.625 -0.546875 -1.875 -0.546875q-1.15625 0 -1.703125 0.40625q-0.546875 0.40625 -0.8125 1.421875l-1.609375 -0.21875q0.21875 -1.015625 0.71875 -1.640625q0.5 -0.640625 1.453125 -0.984375q0.953125 -0.34375 2.1875 -0.34375q1.25 0 2.015625 0.296875q0.78125 0.28125 1.140625 0.734375q0.375 0.4375 0.515625 1.109375q0.078125 0.421875 0.078125 1.515625l0 2.1875q0 2.28125 0.109375 2.890625q0.109375 0.59375 0.40625 1.15625l-1.703125 0q-0.265625 -0.515625 -0.328125 -1.1875zm-0.140625 -3.671875q-0.890625 0.375 -2.671875 0.625q-1.015625 0.140625 -1.4375 0.328125q-0.421875 0.1875 -0.65625 0.53125q-0.21875 0.34375 -0.21875 0.78125q0 0.65625 0.5 1.09375q0.5 0.4375 1.453125 0.4375q0.9375 0 1.671875 -0.40625q0.75 -0.421875 1.09375 -1.140625q0.265625 -0.5625 0.265625 -1.640625l0 -0.609375zm4.2038574 4.859375l0 -9.671875l1.46875 0l0 1.375q1.0625 -1.59375 3.078125 -1.59375q0.875 0 1.609375 0.3125q0.734375 0.3125 1.09375 0.828125q0.375 0.5 0.515625 1.203125q0.09375 0.453125 0.09375 1.59375l0 5.953125l-1.640625 0l0 -5.890625q0 -1.0 -0.203125 -1.484375q-0.1875 -0.5 -0.671875 -0.796875q-0.484375 -0.296875 -1.140625 -0.296875q-1.046875 0 -1.8125 0.671875q-0.75 0.65625 -0.75 2.515625l0 5.28125l-1.640625 0zm10.375702 0l0 -9.671875l1.46875 0l0 1.375q1.0625 -1.59375 3.078125 -1.59375q0.875 0 1.609375 0.3125q0.734375 0.3125 1.09375 0.828125q0.375 0.5 0.515625 1.203125q0.09375 0.453125 0.09375 1.59375l0 5.953125l-1.640625 0l0 -5.890625q0 -1.0 -0.203125 -1.484375q-0.1875 -0.5 -0.671875 -0.796875q-0.484375 -0.296875 -1.140625 -0.296875q-1.046875 0 -1.8125 0.671875q-0.75 0.65625 -0.75 2.515625l0 5.28125l-1.640625 0zm17.000732 -3.109375l1.6875 0.203125q-0.40625 1.484375 -1.484375 2.3125q-1.078125 0.8125 -2.765625 0.8125q-2.125 0 -3.375 -1.296875q-1.234375 -1.3125 -1.234375 -3.671875q0 -2.453125 1.25 -3.796875q1.265625 -1.34375 3.265625 -1.34375q1.9375 0 3.15625 1.328125q1.234375 1.3125 1.234375 3.703125q0 0.15625 0 0.4375l-7.21875 0q0.09375 1.59375 0.90625 2.453125q0.8125 0.84375 2.015625 0.84375q0.90625 0 1.546875 -0.46875q0.640625 -0.484375 1.015625 -1.515625zm-5.390625 -2.65625l5.40625 0q-0.109375 -1.21875 -0.625 -1.828125q-0.78125 -0.953125 -2.03125 -0.953125q-1.125 0 -1.90625 0.765625q-0.765625 0.75 -0.84375 2.015625zm9.094452 5.765625l0 -13.359375l1.640625 0l0 13.359375l-1.640625 0z" fill-rule="nonzero"/><path fill="#000000" fill-opacity="0.0" d="m402.7211 221.63367l0 52.22046" fill-rule="evenodd"/><path stroke="#000000" stroke-width="1.0" stroke-linejoin="round" stroke-linecap="butt" d="m402.7211 221.63365l0 46.220474" fill-rule="evenodd"/><path fill="#000000" stroke="#000000" stroke-width="1.0" stroke-linecap="butt" d="m401.06937 267.85413l1.6517334 4.538086l1.6517334 -4.538086z" fill-rule="evenodd"/></g></svg>